<svg xmlns="http://www.w3.org/2000/svg" width="114.36" height="26.5" viewBox="0 0 114.36 26.5">
  <g id="Group_68" data-name="Group 68" transform="translate(-885.64 -517)">
    <g id="Layer_x0020_1" transform="translate(983.728 517)">
      <g id="_1421394342400">
        <g id="Group_64" data-name="Group 64">
          <path id="Path_123" data-name="Path 123" d="M383.678,0,383.5.6V18.126l.178.177,8.133-4.808Z" transform="translate(-375.544)" fill="#343434"/>
          <path id="Path_124" data-name="Path 124" d="M8.134,0,0,13.5,8.134,18.3V0Z" fill="#8c8c8c"/>
          <path id="Path_125" data-name="Path 125" d="M387.34,729.7l-.1.122v6.242l.1.292,8.138-11.462Z" transform="translate(-379.206 -709.852)" fill="#3c3c3b"/>
          <path id="Path_126" data-name="Path 126" d="M8.134,736.352V729.7L0,724.89Z" transform="translate(0 -709.852)" fill="#8c8c8c"/>
          <path id="Path_127" data-name="Path 127" d="M392.07,480.835l8.134-4.808-8.134-3.7Z" transform="translate(-383.936 -462.531)" fill="#141414"/>
          <path id="Path_128" data-name="Path 128" d="M0,476.027l8.134,4.808v-8.5Z" transform="translate(0 -462.531)" fill="#393939"/>
        </g>
      </g>
    </g>
    <path id="Path_129" data-name="Path 129" d="M2.261,0H.4L4.585-11.636H6.614L10.8,0H8.938L5.648-9.523H5.557Zm.313-4.557H8.619V-3.08H2.574Zm16.142-4.17L15.551,0H13.733l-3.17-8.727h1.824L14.6-2.011h.091l2.2-6.716ZM22.591.193a3.536,3.536,0,0,1-1.5-.31,2.488,2.488,0,0,1-1.06-.9,2.577,2.577,0,0,1-.389-1.449,2.349,2.349,0,0,1,.284-1.216,2.1,2.1,0,0,1,.767-.756,4.006,4.006,0,0,1,1.08-.42,10.733,10.733,0,0,1,1.216-.216q.784-.091,1.273-.151a1.843,1.843,0,0,0,.71-.2.481.481,0,0,0,.222-.443V-5.9a1.541,1.541,0,0,0-.418-1.153,1.706,1.706,0,0,0-1.241-.409,2.164,2.164,0,0,0-1.349.378,2.049,2.049,0,0,0-.679.838l-1.6-.364A3.08,3.08,0,0,1,20.741-7.9a3.39,3.39,0,0,1,1.264-.716,5,5,0,0,1,1.506-.224,5.471,5.471,0,0,1,1.111.122,3.32,3.32,0,0,1,1.1.446,2.466,2.466,0,0,1,.844.923A3.212,3.212,0,0,1,26.9-5.8V0H25.239V-1.193H25.17a2.417,2.417,0,0,1-.494.648,2.626,2.626,0,0,1-.847.528A3.284,3.284,0,0,1,22.591.193ZM22.96-1.17a2.457,2.457,0,0,0,1.207-.278,1.968,1.968,0,0,0,.767-.73,1.887,1.887,0,0,0,.264-.969V-4.273a.861.861,0,0,1-.349.168,4.818,4.818,0,0,1-.588.131q-.33.054-.642.1l-.523.071a4.158,4.158,0,0,0-.9.21,1.54,1.54,0,0,0-.648.423,1.068,1.068,0,0,0-.241.73,1.081,1.081,0,0,0,.466.952A2.048,2.048,0,0,0,22.96-1.17ZM29.159,0V-8.727h1.693L30.858,0Zm.858-10.074a1.055,1.055,0,0,1-.756-.3.958.958,0,0,1-.312-.719.92.92,0,0,1,.31-.71,1.092,1.092,0,0,1,.759-.3,1.049,1.049,0,0,1,.756.3.955.955,0,0,1,.313.71.935.935,0,0,1-.31.719A1.064,1.064,0,0,1,30.017-10.074Zm4.818-1.562L34.841,0h-1.7V-11.636ZM39.665.193a3.536,3.536,0,0,1-1.5-.31,2.488,2.488,0,0,1-1.06-.9,2.577,2.577,0,0,1-.389-1.449A2.349,2.349,0,0,1,37-3.682a2.1,2.1,0,0,1,.767-.756,4.006,4.006,0,0,1,1.08-.42,10.733,10.733,0,0,1,1.216-.216q.784-.091,1.273-.151a1.843,1.843,0,0,0,.71-.2.481.481,0,0,0,.222-.443V-5.9a1.541,1.541,0,0,0-.418-1.153,1.706,1.706,0,0,0-1.241-.409,2.164,2.164,0,0,0-1.349.378,2.049,2.049,0,0,0-.679.838l-1.6-.364A3.08,3.08,0,0,1,37.815-7.9a3.39,3.39,0,0,1,1.264-.716,5,5,0,0,1,1.506-.224,5.471,5.471,0,0,1,1.111.122,3.32,3.32,0,0,1,1.1.446,2.466,2.466,0,0,1,.844.923,3.212,3.212,0,0,1,.33,1.554V0H42.313V-1.193h-.068a2.417,2.417,0,0,1-.494.648,2.626,2.626,0,0,1-.847.528A3.284,3.284,0,0,1,39.665.193Zm.369-1.364a2.457,2.457,0,0,0,1.207-.278,1.968,1.968,0,0,0,.767-.73,1.887,1.887,0,0,0,.264-.969V-4.273a.861.861,0,0,1-.349.168,4.817,4.817,0,0,1-.588.131q-.33.054-.642.1l-.523.071a4.158,4.158,0,0,0-.9.21,1.54,1.54,0,0,0-.648.423,1.068,1.068,0,0,0-.241.73,1.081,1.081,0,0,0,.466.952A2.048,2.048,0,0,0,40.034-1.17ZM46.369,0V-11.636h1.7v4.324h.1a4.748,4.748,0,0,1,.426-.631,2.442,2.442,0,0,1,.773-.628,2.726,2.726,0,0,1,1.307-.27,3.408,3.408,0,0,1,1.886.534,3.6,3.6,0,0,1,1.3,1.54,5.635,5.635,0,0,1,.474,2.42,5.684,5.684,0,0,1-.472,2.423,3.656,3.656,0,0,1-1.3,1.551A3.342,3.342,0,0,1,50.693.17a2.76,2.76,0,0,1-1.3-.267,2.455,2.455,0,0,1-.787-.625,4.731,4.731,0,0,1-.437-.636h-.142V0Zm1.665-4.364A4.474,4.474,0,0,0,48.3-2.75a2.427,2.427,0,0,0,.773,1.082,1.97,1.97,0,0,0,1.239.389,1.982,1.982,0,0,0,1.273-.406,2.5,2.5,0,0,0,.776-1.105,4.424,4.424,0,0,0,.264-1.574,4.382,4.382,0,0,0-.259-1.551A2.4,2.4,0,0,0,51.594-7a2.032,2.032,0,0,0-1.281-.4,2.022,2.022,0,0,0-1.247.381,2.328,2.328,0,0,0-.77,1.063A4.432,4.432,0,0,0,48.034-4.364Zm9.9-7.273L57.943,0h-1.7V-11.636ZM63.989.176A4.254,4.254,0,0,1,61.77-.378,3.692,3.692,0,0,1,60.338-1.94a5.243,5.243,0,0,1-.5-2.366,5.293,5.293,0,0,1,.5-2.364,3.856,3.856,0,0,1,1.409-1.6,3.882,3.882,0,0,1,2.122-.574A4.276,4.276,0,0,1,65.3-8.6a3.468,3.468,0,0,1,1.244.767,3.607,3.607,0,0,1,.869,1.355,5.673,5.673,0,0,1,.318,2.02v.6H60.8V-5.125h5.273a2.524,2.524,0,0,0-.273-1.19,2.073,2.073,0,0,0-.764-.821,2.158,2.158,0,0,0-1.151-.3,2.217,2.217,0,0,0-1.247.349,2.361,2.361,0,0,0-.818.909,2.62,2.62,0,0,0-.287,1.213v.994a3.275,3.275,0,0,0,.31,1.489,2.183,2.183,0,0,0,.866.935,2.559,2.559,0,0,0,1.3.321,2.651,2.651,0,0,0,.881-.139,1.87,1.87,0,0,0,.688-.418,1.826,1.826,0,0,0,.443-.688l1.608.29a2.905,2.905,0,0,1-.69,1.241,3.344,3.344,0,0,1-1.244.824A4.639,4.639,0,0,1,63.989.176Zm13.551,0A4.007,4.007,0,0,1,75.4-.386a3.793,3.793,0,0,1-1.42-1.574,5.223,5.223,0,0,1-.506-2.364A5.272,5.272,0,0,1,73.977-6.7a3.785,3.785,0,0,1,1.42-1.58,4.007,4.007,0,0,1,2.142-.562,4.007,4.007,0,0,1,2.142.563A3.786,3.786,0,0,1,81.1-6.7a5.272,5.272,0,0,1,.506,2.375A5.223,5.223,0,0,1,81.1-1.96a3.793,3.793,0,0,1-1.42,1.574A4.007,4.007,0,0,1,77.54.176Zm.006-1.426a2.036,2.036,0,0,0,1.318-.42,2.483,2.483,0,0,0,.776-1.119,4.5,4.5,0,0,0,.253-1.54,4.5,4.5,0,0,0-.253-1.537,2.52,2.52,0,0,0-.776-1.128,2.018,2.018,0,0,0-1.318-.426,2.038,2.038,0,0,0-1.327.426,2.511,2.511,0,0,0-.778,1.128,4.5,4.5,0,0,0-.253,1.537,4.5,4.5,0,0,0,.253,1.54,2.474,2.474,0,0,0,.778,1.119A2.057,2.057,0,0,0,77.545-1.25ZM85.2-5.182V0H83.5V-8.727h1.631v1.42h.108a2.489,2.489,0,0,1,.946-1.114,2.924,2.924,0,0,1,1.628-.42,3.167,3.167,0,0,1,1.563.372,2.525,2.525,0,0,1,1.04,1.105,4,4,0,0,1,.369,1.813V0h-1.7V-5.347a2.111,2.111,0,0,0-.494-1.486,1.754,1.754,0,0,0-1.358-.537,2.112,2.112,0,0,0-1.048.256,1.819,1.819,0,0,0-.722.747A2.471,2.471,0,0,0,85.2-5.182Z" transform="translate(885.242 535.75)" fill="#171c47"/>
  </g>
</svg>
