<svg xmlns="http://www.w3.org/2000/svg" width="58.699" height="16" viewBox="0 0 58.699 16">
  <g id="Group_8" data-name="Group 8" transform="translate(0 -3)">
    <path id="Path_130" data-name="Path 130" d="M-14.375,0h-3.767V-11.636h3.886a5.862,5.862,0,0,1,2.938.7A4.644,4.644,0,0,1-9.435-8.946a6.826,6.826,0,0,1,.656,3.111A6.844,6.844,0,0,1-9.44-2.71,4.665,4.665,0,0,1-11.352-.7,6.087,6.087,0,0,1-14.375,0Zm-2.011-1.534h1.915a4.407,4.407,0,0,0,2.21-.5A3.133,3.133,0,0,0-10.943-3.5a5.606,5.606,0,0,0,.438-2.338,5.587,5.587,0,0,0-.435-2.324,3.106,3.106,0,0,0-1.293-1.449,4.212,4.212,0,0,0-2.131-.494h-2.023ZM-3.057.176A4.007,4.007,0,0,1-5.2-.386,3.793,3.793,0,0,1-6.619-1.96a5.223,5.223,0,0,1-.506-2.364A5.272,5.272,0,0,1-6.619-6.7,3.786,3.786,0,0,1-5.2-8.278a4.007,4.007,0,0,1,2.142-.562,4.007,4.007,0,0,1,2.142.563A3.786,3.786,0,0,1,.506-6.7a5.272,5.272,0,0,1,.506,2.375A5.223,5.223,0,0,1,.506-1.96,3.793,3.793,0,0,1-.915-.386,4.007,4.007,0,0,1-3.057.176Zm.006-1.426a2.036,2.036,0,0,0,1.318-.42A2.483,2.483,0,0,0-.957-2.79,4.5,4.5,0,0,0-.7-4.33,4.5,4.5,0,0,0-.957-5.866a2.52,2.52,0,0,0-.776-1.128A2.018,2.018,0,0,0-3.051-7.42a2.038,2.038,0,0,0-1.327.426,2.511,2.511,0,0,0-.778,1.128A4.5,4.5,0,0,0-5.409-4.33a4.5,4.5,0,0,0,.253,1.54A2.474,2.474,0,0,0-4.378-1.67,2.057,2.057,0,0,0-3.051-1.25ZM6.58.176A3.992,3.992,0,0,1,4.4-.4,3.774,3.774,0,0,1,3-1.994a5.316,5.316,0,0,1-.489-2.33,5.273,5.273,0,0,1,.5-2.349A3.834,3.834,0,0,1,4.42-8.267a3.928,3.928,0,0,1,2.142-.574,4.114,4.114,0,0,1,1.773.366A3.225,3.225,0,0,1,9.594-7.449a3.1,3.1,0,0,1,.571,1.54H8.511a1.988,1.988,0,0,0-.622-1.057,1.852,1.852,0,0,0-1.3-.443,2.109,2.109,0,0,0-1.241.372A2.424,2.424,0,0,0,4.523-5.98a4.058,4.058,0,0,0-.3,1.616,4.258,4.258,0,0,0,.29,1.648,2.438,2.438,0,0,0,.821,1.074,2.094,2.094,0,0,0,1.253.381,2.1,2.1,0,0,0,.878-.179,1.79,1.79,0,0,0,.665-.514,1.965,1.965,0,0,0,.378-.807h1.653A3.212,3.212,0,0,1,9.614-1.25,3.176,3.176,0,0,1,8.384-.2,4.024,4.024,0,0,1,6.58.176ZM18.528-6.6l-1.54.273a1.855,1.855,0,0,0-.3-.562,1.545,1.545,0,0,0-.56-.437,2.017,2.017,0,0,0-.881-.17,2.13,2.13,0,0,0-1.2.321.961.961,0,0,0-.483.827.868.868,0,0,0,.324.7,2.622,2.622,0,0,0,1.045.438l1.386.318a3.719,3.719,0,0,1,1.8.858A2.016,2.016,0,0,1,18.7-2.523a2.285,2.285,0,0,1-.452,1.395,2.991,2.991,0,0,1-1.256.957,4.666,4.666,0,0,1-1.861.347,4.181,4.181,0,0,1-2.392-.628A2.632,2.632,0,0,1,11.6-2.239l1.642-.25a1.56,1.56,0,0,0,.631.969,2.161,2.161,0,0,0,1.244.327,2.289,2.289,0,0,0,1.335-.349,1.022,1.022,0,0,0,.5-.855.9.9,0,0,0-.3-.687,2.032,2.032,0,0,0-.929-.42L14.244-3.83a3.531,3.531,0,0,1-1.8-.886,2.136,2.136,0,0,1-.582-1.54,2.2,2.2,0,0,1,.432-1.352,2.848,2.848,0,0,1,1.193-.906,4.388,4.388,0,0,1,1.744-.327,3.63,3.63,0,0,1,2.227.611A2.868,2.868,0,0,1,18.528-6.6Z" transform="translate(40 16)" fill="#171c47"/>
    <path id="Path_1" data-name="Path 1" d="M9.5,24A1.538,1.538,0,0,1,8,22.5V18.925H9.5V22.5h13V18.925H24V22.5A1.538,1.538,0,0,1,22.5,24ZM16,20.175,11.175,15.35l1.075-1.075,3,3V8h1.5v9.275l3-3,1.075,1.075Z" transform="translate(-8 -5)" fill="#171c47"/>
  </g>
</svg>
