<?xml version="1.0" encoding="UTF-8"?>
<svg id="Layer_1" data-name="Layer 1" xmlns="http://www.w3.org/2000/svg" xmlns:xlink="http://www.w3.org/1999/xlink" viewBox="0 0 2983.03 564">
  <defs>
    <style>
      .cls-1 {
        fill: url(#New_Gradient_Swatch_copy);
      }

      .cls-2 {
        fill: #171c47;
      }
    </style>
    <linearGradient id="New_Gradient_Swatch_copy" data-name="New Gradient Swatch copy" x1="398.7" y1="178.79" x2="12.1" y2="401.99" gradientUnits="userSpaceOnUse">
      <stop offset="0" stop-color="#c7f222"/>
      <stop offset=".75" stop-color="#00d37f"/>
    </linearGradient>
  </defs>
  <path class="cls-1" d="M415.4,207.7L207.7,0,34.62,173.08,0,207.7v173.33l86.42,86.42,34.62,34.62,34.62-34.62h0l27.57-27.57v124.13h48.95v-124.13l27.45,27.45h0s34.62,34.62,34.62,34.62l34.62-34.62h0l86.54-86.54V207.7Zm-183.22,113.99V93.71l113.99,113.99-113.99,113.99Zm-48.95-227.98v227.98l-113.99-113.99,113.99-113.99ZM48.95,360.75v-104.09l124.13,124.13-52.05,52.05-72.08-72.08Zm193.36,20.03l124.13-124.13v103.85l-72.2,72.2-51.92-51.92Z"/>
  <path class="cls-2" d="M2894.18,469.97c59.76,0,88.85-35.78,88.85-83.74,0-55.43-31.06-82.56-88.85-82.56h-130.92c-22.02,0-35.78-12.97-35.78-34.6s13.37-34.99,36.17-34.99h205.22v-49.93h-205.22c-57.01,0-88.06,34.2-88.06,80.2s33.42,81.38,87.28,81.38h131.31c26.73,0,41.67,12.58,41.67,36.96,0,22.41-14.94,37.35-41.67,37.35h-214.26v49.93h214.26Zm-299.22-166.3h-158.44v42.07h158.44v-42.07Zm11.01,166.3v-49.93h-206.01V234.08h205.61v-49.93h-255.15V469.97h255.54Zm-321.39,0v-49.93h-192.25V184.15h-49.93V469.97h242.18Zm-573.99-49.93V234.08h115.98c51.5,0,89.24,38.53,89.24,92.39s-37.74,93.57-89.24,93.57h-115.98Zm115.98,49.93c80.59,0,139.17-62.9,139.17-145.86s-58.58-139.96-139.17-139.96h-165.51V469.97h165.51Zm-301.77-7.08c7.08,7.08,14.55,10.61,22.8,10.61,14.55,0,24.77-11.01,24.77-29.88V181.8h-47.57v209.15l-201.68-200.11c-7.47-7.47-13.76-10.22-21.23-10.22-15.73,0-25.55,11.4-25.55,29.88V469.97h47.57v-209.15l200.9,202.08Zm-382.57-119.12c0,57.4-25.55,80.99-104.18,80.99s-104.18-23.59-104.18-80.99V184.15h-51.5v159.62c0,88.46,44.03,130.13,154.11,130.13s154.51-41.67,154.51-130.13V184.15h-48.75v159.62Zm-429.78,1.97c27.91,0,43.25,13.37,43.25,36.96,0,27.91-25.95,37.74-61.72,37.74h-144.68V234.08h140.35c36.96,0,60.94,4.72,60.94,34.99,0,24.77-13.37,34.6-41.67,34.6h-123.45v42.07h126.99Zm1.97,124.23c55.83,0,92-34.2,92-86.49,0-33.42-18.87-56.22-44.82-64.48,21.23-6.68,39.71-24.77,39.71-60.94,0-48.75-36.96-73.91-92.78-73.91h-209.15V469.97h215.05Z"/>
</svg>