<svg id="eden-logo-blue-rpc" xmlns="http://www.w3.org/2000/svg" xmlns:xlink="http://www.w3.org/1999/xlink" width="199.697" height="72" viewBox="0 0 199.697 72">
  <defs>
    <linearGradient id="linear-gradient" x1="0.96" y1="0.317" x2="0.029" y2="0.713" gradientUnits="objectBoundingBox">
      <stop offset="0" stop-color="#c7f222"/>
      <stop offset="0.75" stop-color="#00d37f"/>
    </linearGradient>
  </defs>
  <path id="Path_121" data-name="Path 121" d="M53.03,26.515,26.515,0,4.42,22.1,0,26.515V48.642L11.032,59.674l4.42,4.42,4.42-4.42h0l3.52-3.52V72H29.64V56.154l3.5,3.5h0l4.42,4.42,4.42-4.42h0L53.031,48.61v-22.1ZM29.64,41.067v-29.1L44.191,26.515Zm-6.25-29.1v29.1L8.838,26.515ZM6.249,46.053V32.764L22.1,48.61l-6.645,6.645ZM30.933,48.61,46.78,32.764V46.021l-9.217,9.217Z" fill="url(#linear-gradient)"/>
  <path id="Path_122" data-name="Path 122" d="M615.53,190.529h19.787v-6.378H615.53c-10.195,0-17.728,7.131-17.728,17.879,0,10.6,7.533,18.632,17.728,18.632h19.787v-6.378H615.53c-6.58,0-11.35-5.072-11.35-11.953C604.18,195.4,609,190.529,615.53,190.529Zm-76.686,6.929c0-8.136-4.921-13.309-13.259-13.309H499.37v36.511H505.7V190.529h19.888c4.37,0,6.98,2.311,6.98,7.031s-2.41,7.333-6.98,7.333H510.369v5.625h13.66l9.241,10.145h9.04l-11-11.1C536.031,207.754,538.844,203.485,538.844,197.459Zm37.163-13.309H550.343v36.511h6.328V190.529h19.335c4.469,0,7.131,2.662,7.131,6.881,0,4.118-2.662,6.931-7.131,6.931H561.341v6.177h14.664c8.437,0,13.358-5.424,13.358-13.309C589.365,189.223,584.444,184.15,576.007,184.15Z" transform="translate(-435.621 -160.641)" fill="#171c47"/>
</svg>
