<svg id="eden-logo-blue-relay" xmlns="http://www.w3.org/2000/svg" xmlns:xlink="http://www.w3.org/1999/xlink" width="283.211" height="72.001" viewBox="0 0 283.211 72.001">
  <defs>
    <linearGradient id="linear-gradient" x1="0.96" y1="0.317" x2="0.029" y2="0.713" gradientUnits="objectBoundingBox">
      <stop offset="0" stop-color="#c7f222"/>
      <stop offset="0.75" stop-color="#00d37f"/>
    </linearGradient>
  </defs>
  <path id="Path_119" data-name="Path 119" d="M53.031,26.515,26.515,0,4.42,22.1,0,26.515V48.643L11.033,59.675l4.42,4.42,4.42-4.42h0l3.52-3.52V72H29.64V56.155l3.5,3.5h0l4.42,4.42,4.42-4.42h0L53.032,48.611v-22.1ZM29.64,41.067v-29.1L44.191,26.515Zm-6.25-29.1v29.1L8.838,26.515ZM6.249,46.054V32.764L22.1,48.611l-6.645,6.645Zm24.685,2.557L46.78,32.764V46.022l-9.217,9.217Z" fill="url(#linear-gradient)"/>
  <path id="Path_120" data-name="Path 120" d="M710.806,185.035l-14.07,16.6-14.02-16.6h-8.472l19.122,22.342V221.05h6.291V207.377l19.172-22.342Zm-154.911,6.292H581.8v-6.291H549.652v36.016h32.2v-6.291H555.895Zm-17.587,6.836c0-8.026-4.855-13.129-13.079-13.129H499.37v36.016h6.243V191.328H525.23c4.31,0,6.886,2.279,6.886,6.936s-2.378,7.233-6.886,7.233H510.219v5.548h13.475l9.115,10.007h8.917L530.876,210.1C535.534,208.32,538.308,204.109,538.308,198.164Zm42.159,7.233v-5.3H560.5v5.3Zm73.317-20.857a3.513,3.513,0,0,0-3.072,2.031L630,221.051h7.183l16.348-27.644,8.026,13.475H650.515l-2.972,5.1h17.042l5.4,9.065h7.579l-20.758-34.48A3.443,3.443,0,0,0,653.784,184.54Zm-55.335.5h-6.291v36.016h30.516V214.76H598.449Z" transform="translate(-435.62 -160.981)" fill="#171c47"/>
</svg>
