<svg id="Group_22" data-name="Group 22" xmlns="http://www.w3.org/2000/svg" width="189.63" height="55.52" viewBox="0 0 189.63 55.52">
  <path id="Path_81" data-name="Path 81" d="M25.841,18.045c-.7,7.859-8.542,14.97-11.19,19.454-2.541,4.314-3.438,8.371-1.559,16.23a.508.508,0,0,1-.7.6C9.056,52.811.6,48.219.6,37.307.6,21.91,17.62,21.376,16.83.534A.5.5,0,0,1,17.6.086,19.479,19.479,0,0,1,25.841,18.045Z" transform="translate(-0.6 0)" fill="#0ca28b"/>
  <path id="Path_82" data-name="Path 82" d="M7.417,43.539a.481.481,0,0,1-.342-.448c-.192-5.1,2.563-8.435,5.638-10.912,6.834-5.488,11.04-12.92,9.375-21.5a.483.483,0,0,1,.833-.448,33.5,33.5,0,0,1,4.143,6.406c4.378,9.4,2.029,20.159-8.414,25.583A14.983,14.983,0,0,1,7.417,43.539Z" transform="translate(6.741 11.408)" fill="#3bbeaa"/>
  <path id="Union_4" data-name="Union 4" d="M66.926,27.334V23.084C66.926,15.226,73.268,9.61,81,9.61c7.752,0,14.073,5.616,14.073,13.475v4.249c0,7.859-6.342,13.433-14.073,13.433C73.247,40.766,66.926,35.193,66.926,27.334Zm7.41-4.8v5.3c0,3.716,3.011,6.193,6.662,6.193,3.673,0,6.663-2.477,6.663-6.193v-5.3c0-3.715-3.011-6.193-6.663-6.193C77.325,16.336,74.336,18.814,74.336,22.529ZM47.023,40.766a11.494,11.494,0,0,1-11.4-11.51V9.589H41a2.078,2.078,0,0,1,2.071,2.093V28.573a5.549,5.549,0,0,0,8.564,4.656,4.972,4.972,0,0,0,2.392-4.292V9.61l5.381-.021a2.078,2.078,0,0,1,2.072,2.093V29.256a11.479,11.479,0,0,1-11.4,11.51Zm-22.144,0a2.07,2.07,0,0,1-2.03-2.093V22.785H7.282V40.766H2.029A2.069,2.069,0,0,1,0,38.674V.021H5.253A2.069,2.069,0,0,1,7.282,2.114V16.251H22.849V.021H28.1a2.07,2.07,0,0,1,2.029,2.093V40.766Zm111.876-.021a2.025,2.025,0,0,1-2.029-2.072V11.254H140a2.07,2.07,0,0,1,2.029,2.093v27.4ZM100.537,27.313V0h5.36a2.078,2.078,0,0,1,2.072,2.093v9.076A15.26,15.26,0,0,1,114.7,9.631c7.8,0,14.158,5.616,14.158,13.433v4.249c0,7.858-6.363,13.433-14.158,13.433S100.537,35.15,100.537,27.313Zm7.453-4.762v5.3c0,3.695,3.032,6.172,6.705,6.172,3.695,0,6.706-2.456,6.706-6.172v-5.3c0-3.695-3.032-6.172-6.706-6.172C111,16.379,107.99,18.835,107.99,22.551ZM134.364,4.078a4.057,4.057,0,1,1,4.057,4.058A4.055,4.055,0,0,1,134.364,4.078Z" transform="translate(47.151 13.945)"/>
</svg>
