<svg xmlns="http://www.w3.org/2000/svg" width="102" height="86.3" viewBox="0 0 102 86.3">
  <g id="Layer_2" data-name="Layer 2" transform="translate(0 0.011)">
    <g id="Layer_1" data-name="Layer 1" transform="translate(0 -0.011)">
      <path id="Path_114" data-name="Path 114" d="M87.6,11.283,75.322,17.541,16.015,47.749A35.326,35.326,0,0,1,68.27,12.336L75.3,8.754l1.049-.535a43.155,43.155,0,0,0-68.5,34.929q0,1.648.125,3.284a7.85,7.85,0,0,1-4.264,7.587L0,55.909v8.816l10.914-5.563h0l3.534-1.8,3.483-1.774h0L80.453,23.729l7.026-3.578L102,12.75V3.938Z" transform="translate(0 0.011)"/>
      <path id="Path_115" data-name="Path 115" d="M102,50,21.482,91l-7.026,3.586L0,101.949v8.808l14.358-7.315,12.282-6.257L86.007,66.934a36.013,36.013,0,0,1,.3,4.643,35.331,35.331,0,0,1-52.61,30.8l-.432.229-7.621,3.884A43.155,43.155,0,0,0,94.155,71.577c0-1.109-.043-2.218-.125-3.314a7.854,7.854,0,0,1,4.259-7.587L102,58.786Z" transform="translate(0 -28.418)"/>
    </g>
  </g>
</svg>
