<svg xmlns="http://www.w3.org/2000/svg" width="210.224" height="46.659" viewBox="0 0 210.224 46.659">
  <path id="Union_2" data-name="Union 2" d="M184.291,46.659V11.219h5.3l.83,3.274a9.882,9.882,0,0,1,8.139-3.886c6.844,0,11.659,5.5,11.659,13.321s-4.815,13.3-11.659,13.3a9.542,9.542,0,0,1-7.626-3.519V45a1.664,1.664,0,0,1-1.661,1.662Zm6.551-24.442V25.64c0,3.666,2.493,6.379,6.013,6.379,3.886,0,6.623-3.374,6.623-8.066s-2.737-8.09-6.623-8.09v-.025C193.334,15.838,190.842,18.479,190.842,22.218Zm-85.107,1.711c0-7.821,4.815-13.321,11.659-13.321a9.882,9.882,0,0,1,8.139,3.886l.831-3.274h5.279V36.614h-5.279l-.831-3.275a9.859,9.859,0,0,1-6.966,3.812,6.312,6.312,0,0,1-1.173.073C110.55,37.225,105.735,31.75,105.735,23.929Zm6.746,0c0,4.693,2.737,8.066,6.624,8.066,3.519,0,6.012-2.713,6.012-6.379v-3.4c0-3.739-2.493-6.379-6.012-6.379C115.219,15.838,112.481,19.235,112.481,23.929ZM88.919,29.037V5.426a1.664,1.664,0,0,1,1.663-1.663h4.962v7.454h7.039v5.035H95.543V28.377a3.553,3.553,0,0,0,3.471,3.569,13.714,13.714,0,0,0,3.373-.465l.88,4.962a23.438,23.438,0,0,1-5.743.782C92.439,37.225,88.919,33.9,88.919,29.037Zm-41.16,0V5.426A1.638,1.638,0,0,1,49.4,3.789h4.986v7.431h7.039v5.035H54.383V28.377a3.553,3.553,0,0,0,3.471,3.569,13.715,13.715,0,0,0,3.372-.465l.88,4.962a23.445,23.445,0,0,1-5.743.782C51.279,37.225,47.759,33.9,47.759,29.037Zm16.987,6.135,1.393-4.717a22.228,22.228,0,0,0,8.188,1.808c2.444,0,4.155-1.2,4.155-2.957,0-4.815-13.516-1.442-13.516-11.072,0-4.448,4.032-7.675,9.9-7.675l-.025.05a27.794,27.794,0,0,1,9.313,1.76l-1.443,4.767a21.191,21.191,0,0,0-7.357-1.614c-2.273,0-3.934,1.076-3.934,2.737,0,4.6,13.564,1.247,13.564,11.073,0,4.62-4.155,7.871-10.143,7.871A28.956,28.956,0,0,1,64.747,35.172ZM0,36.638V31.6a5.246,5.246,0,0,0,5.255-5.255A5.247,5.247,0,0,0,0,21.093V16.938a5.246,5.246,0,0,0,5.255-5.255A5.247,5.247,0,0,0,0,6.428V1.809H18.478C24.93,1.809,29.5,5.6,29.5,11.023a8.037,8.037,0,0,1-4.815,7.455,8.728,8.728,0,0,1,6.061,8.481l-.025.049c0,5.695-4.815,9.63-11.438,9.63Zm9.923-5.059h8.286c3.422,0,5.744-2.176,5.744-5.28s-2.322-5.23-5.744-5.23H9.923Zm0-15.081h7.6c3.1,0,5.328-1.98,5.328-4.815s-2.224-4.864-5.328-4.864h-7.6Zm25,20.116V11.243h6.624V36.614Zm137.289-.025V20.9a4.7,4.7,0,0,0-4.912-4.864c-3.374,0-5.744,2.541-5.744,6.158v14.4h-6.623V20.9a4.685,4.685,0,0,0-4.865-4.864c-3.421,0-5.792,2.541-5.792,6.158v14.4h-6.624V11.219h5.23l.831,3.471a10.247,10.247,0,0,1,8.335-4.082,8.781,8.781,0,0,1,8.139,4.668,11.335,11.335,0,0,1,9.165-4.668c5.548,0,9.483,3.837,9.483,9.264V36.589Zm-34.609-25.37h.049ZM34.317,3.984a3.96,3.96,0,1,1,7.919,0,3.838,3.838,0,0,1-3.985,3.984A3.8,3.8,0,0,1,34.317,3.984Z"/>
</svg>
