<svg xmlns="http://www.w3.org/2000/svg" width="210" height="37.513" viewBox="0 0 210 37.513">
  <path id="Path_68" data-name="Path 68" d="M42.384,10.473a13.321,13.321,0,0,0-13.59,13.544,13.191,13.191,0,0,0,13.59,13.494A13.345,13.345,0,0,0,56.074,23.967,13.274,13.274,0,0,0,42.384,10.473Zm.051,21.451c-4.344,0-7.528-3.374-7.528-7.905,0-4.583,3.132-7.955,7.476-7.955,4.4,0,7.577,3.424,7.577,7.955S46.779,31.924,42.435,31.924ZM57.74,16.365H61.53V37.01h6.062V10.976H57.74Zm-44.2-.3a6.892,6.892,0,0,1,6.668,4.884h6.416C25.46,14.7,20.307,10.473,13.59,10.473A13.321,13.321,0,0,0,0,24.019,13.19,13.19,0,0,0,13.59,37.513,12.782,12.782,0,0,0,26.573,26.989H20.206a6.833,6.833,0,0,1-6.618,4.935c-4.4,0-7.476-3.374-7.476-7.905C6.113,19.436,9.144,16.062,13.538,16.062ZM172.919,21.5l-4.445-.654c-2.121-.3-3.637-1.006-3.637-2.669,0-1.813,1.971-2.718,4.648-2.718,2.93,0,4.8,1.258,5.2,3.323h5.86c-.658-5.236-4.7-8.307-10.912-8.307-6.417,0-10.66,3.273-10.66,7.905,0,4.43,2.779,7,8.385,7.8l4.445.654c2.173.3,3.386,1.159,3.386,2.77,0,2.065-2.121,2.92-5.051,2.92-3.588,0-5.608-1.46-5.911-3.675H158.27c.557,5.086,4.547,8.66,11.821,8.66,6.619,0,11.012-3.021,11.012-8.208C181.1,24.673,177.922,22.255,172.919,21.5ZM64.561.252a3.751,3.751,0,0,0-3.89,3.826,3.891,3.891,0,0,0,7.781,0A3.751,3.751,0,0,0,64.561.252ZM153.522,19.89c0-5.639-3.435-9.415-10.709-9.415-6.87,0-10.709,3.475-11.468,8.813h6.012c.3-2.064,1.92-3.776,5.355-3.776,3.083,0,4.6,1.359,4.6,3.021,0,2.166-2.779,2.718-6.214,3.071-4.648.5-10.406,2.114-10.406,8.157,0,4.684,3.486,7.7,9.044,7.7,4.344,0,7.072-1.813,8.437-4.684a4.5,4.5,0,0,0,4.8,4.23h3.536V31.623h-2.982V19.89Zm-5.961,6.546c0,3.475-3.031,6.043-6.72,6.043-2.274,0-4.193-.957-4.193-2.97,0-2.568,3.082-3.273,5.911-3.574,2.728-.252,4.243-.856,5-2.015ZM115.381,10.473a10.566,10.566,0,0,0-8.235,3.776V0h-6.062V37.01h5.96V33.586a10.515,10.515,0,0,0,8.336,3.927c7.274,0,12.781-5.74,12.781-13.494S122.555,10.473,115.381,10.473Zm-.909,21.451c-4.344,0-7.528-3.374-7.528-7.905s3.233-7.955,7.577-7.955c4.4,0,7.476,3.374,7.476,7.955C122,28.55,118.816,31.924,114.472,31.924ZM86.585,10.473c-3.94,0-6.517,1.611-8.032,3.877V10.976H72.54V37.008H78.6V22.86c0-3.978,2.526-6.8,6.264-6.8,3.486,0,5.657,2.467,5.657,6.043v14.9h6.062V21.653C96.588,15.105,93.2,10.473,86.585,10.473ZM210,23.163c0-7.452-5.456-12.688-12.781-12.688A13.177,13.177,0,0,0,183.73,24.019c0,8.107,6.113,13.494,13.59,13.494,6.315,0,11.266-3.727,12.528-9.013h-6.316c-.909,2.316-3.132,3.626-6.113,3.626-3.891,0-6.821-2.417-7.477-6.647H210V23.163Zm-19.7-2.015a6.784,6.784,0,0,1,6.821-5.387,6.348,6.348,0,0,1,6.668,5.387Z" fill="#0052ff"/>
</svg>
