<svg xmlns="http://www.w3.org/2000/svg" xmlns:xlink="http://www.w3.org/1999/xlink" width="180" height="76.742" viewBox="0 0 180 76.742">
  <defs>
    <filter id="Union_7" x="0" y="0" width="180" height="76.742" filterUnits="userSpaceOnUse">
      <feOffset input="SourceAlpha"/>
      <feGaussianBlur stdDeviation="6" result="blur"/>
      <feFlood flood-opacity="0.161"/>
      <feComposite operator="in" in2="blur"/>
      <feComposite in="SourceGraphic"/>
    </filter>
  </defs>
  <g transform="matrix(1, 0, 0, 1, 0, 0)" filter="url(#Union_7)">
    <path id="Union_7-2" data-name="Union 7" d="M19.49,40.742V31.631h1.564v9.112Zm1.875-13.9a6.435,6.435,0,0,0,1.49-.435l3.9,13.295-1.49.435ZM13.792,39.7,17.7,26.4a6.854,6.854,0,0,0,1.49.435L15.281,40.134Zm71.951-3.624v-6.43h1.031c2.184,6.381,6.219,8.516,10.762,8.516,4.42,0,9.1-2.781,9.1-7.907,0-3.327-1.961-5.239-6.431-7.312l-5.561-2.57c-4.693-2.184-7.585-5.176-7.585-9.707,0-5.176,4.307-9.658,11.458-9.658a20.854,20.854,0,0,1,10.093,2.669V9.733h-1.043c-1.738-5.462-5.462-7.076-9.322-7.076-5.239,0-8.789,3.165-8.789,7.746,0,3.873,2.458,5.946,6.22,7.634l5.623,2.558c5.015,2.3,7.746,4.916,7.746,9.223,0,5.785-5.127,9.981-11.732,9.981A19.811,19.811,0,0,1,85.742,36.075ZM67.2,39.786c-11.942,0-19.589-7.907-19.589-19.093,0-11.458,8.726-19.688,20.892-19.688A26.89,26.89,0,0,1,80.888,3.737V9.844H79.858c-1.8-4.916-5.561-7.213-11.507-7.213-10.577,0-18.013,7.474-18.013,17.839,0,10.75,7.312,17.677,17.4,17.677a19.973,19.973,0,0,0,9.049-2.023V25.386c0-3.488-.757-3.874-4.742-4.245v-.994H82.626v.981c-2.507.384-3.377.757-3.377,4.2V36.347a21.92,21.92,0,0,1-11.8,3.44Zm73.478-.435L122.065,19.986h-2.942V33.405c0,4.469.806,4.742,3.438,4.965v.981h-9.335v-.981c2.731-.211,3.439-.483,3.439-4.965V7.709c0-4.1-.608-4.966-3.439-5.288V1.44h11.781c8.131,0,13.307,3.488,13.307,9.112,0,5.512-4.965,9.274-12.823,9.546L144,39.191v.161Zm-21.55-21h5.4c7.15,0,11.135-2.831,11.135-7.746,0-4.742-3.923-7.522-11.073-7.522h-5.462ZM8.6,37.093l4.928-7.672,1.317.844L9.919,37.937ZM25.7,30.253l1.316-.844,4.928,7.672-1.316.844Zm-1.006-5.027a7.232,7.232,0,0,0,1.019-1.18L36.186,33.12,35.168,34.3ZM4.37,33.12l10.465-9.075a6.218,6.218,0,0,0,1.03,1.18L5.387,34.3Zm25.821-7.361.645-1.416,8.293,3.786-.645,1.416ZM1.539,28.13l8.293-3.823.658,1.415L2.2,29.545Zm25.076-6.058a8.248,8.248,0,0,0,.224-1.539l13.717,1.974-.223,1.539ZM0,22.494,13.717,20.52a6.488,6.488,0,0,0,.224,1.539L.223,24.033ZM31.307,18l9.025-1.3.223,1.539-9.025,1.3ZM0,18.236.223,16.7,9.248,18l-.223,1.539Zm25.883-1.279,12.6-5.76.645,1.416-12.6,5.76A6.1,6.1,0,0,0,25.883,16.957ZM1.427,12.613,2.073,11.2l12.6,5.76a6.677,6.677,0,0,0-.645,1.416Zm21.712,1.849L30.625,2.805l1.316.844L24.455,15.306A6.377,6.377,0,0,0,23.139,14.462ZM8.6,3.65l1.316-.832S17.4,14.462,17.4,14.462a6.571,6.571,0,0,0-1.316.844Zm8.8,10.813h0Zm2.085-.608V0h1.552V13.854A6.485,6.485,0,0,0,19.49,13.854Zm8.777-1.44,6.889-5.971,1.018,1.179-6.89,5.971ZM4.37,7.622,5.387,6.443l6.89,5.971-1.018,1.179ZM22.693,9.347,25.262.608l1.49.435L24.182,9.782Zm-8.9-8.3,1.49-.435,2.57,8.739-1.49.435Z" transform="translate(18 18)" fill="#fff"/>
  </g>
</svg>
