<svg xmlns="http://www.w3.org/2000/svg" xmlns:xlink="http://www.w3.org/1999/xlink" width="96" height="75.233" viewBox="0 0 96 75.233">
  <defs>
    <linearGradient id="linear-gradient" x1="0.907" y1="1.512" x2="0.355" y2="-3.91" gradientUnits="objectBoundingBox">
      <stop offset="0" stop-color="#00ffa3"/>
      <stop offset="1" stop-color="#dc1fff"/>
    </linearGradient>
    <linearGradient id="linear-gradient-2" x1="0.666" y1="5.175" x2="0.114" y2="-0.247" xlink:href="#linear-gradient"/>
    <linearGradient id="linear-gradient-3" x1="0.786" y1="3.356" x2="0.234" y2="-2.067" xlink:href="#linear-gradient"/>
  </defs>
  <g id="solana-sol-logo" transform="translate(0.02)">
    <path id="Path_111" data-name="Path 111" d="M15.577,235.017A3.141,3.141,0,0,1,17.8,234.1H94.406a1.569,1.569,0,0,1,1.11,2.679L80.383,251.913a3.141,3.141,0,0,1-2.221.917H1.554a1.569,1.569,0,0,1-1.11-2.679Z" transform="translate(0 -177.597)" fill="url(#linear-gradient)"/>
    <path id="Path_112" data-name="Path 112" d="M15.577.917A3.227,3.227,0,0,1,17.8,0H94.406a1.569,1.569,0,0,1,1.11,2.679L80.383,17.813a3.141,3.141,0,0,1-2.221.917H1.554a1.569,1.569,0,0,1-1.11-2.679Z" transform="translate(0)" fill="url(#linear-gradient-2)"/>
    <path id="Path_113" data-name="Path 113" d="M80.383,117.217a3.141,3.141,0,0,0-2.221-.917H1.554a1.569,1.569,0,0,0-1.11,2.679l15.133,15.133a3.141,3.141,0,0,0,2.221.917H94.406a1.569,1.569,0,0,0,1.11-2.679Z" transform="translate(0 -88.229)" fill="url(#linear-gradient-3)"/>
  </g>
</svg>
