<svg width="222" height="43" viewBox="0 0 222 43" fill="none" xmlns="http://www.w3.org/2000/svg">
<g clip-path="url(#clip0_1545_172)">
<path d="M25.5924 14.3439C25.555 14.2746 25.5012 14.2159 25.4357 14.173C25.3702 14.1302 25.2953 14.1046 25.2175 14.0986C25.1398 14.0925 25.0619 14.1063 24.9907 14.1385C24.9196 14.1708 24.8575 14.2205 24.8102 14.2833C24.2001 14.8331 23.59 15.3677 22.9388 15.9061C22.4036 16.3725 22.3999 16.4635 22.8527 17.0019L31.854 27.922C32.2507 28.3922 32.2282 28.4832 31.7978 28.8738C30.0662 30.3904 28.3296 31.9071 26.588 33.4238C26.165 33.803 26.0004 33.7727 25.6336 33.329C24.3835 31.8351 23.1409 30.3336 21.8908 28.8396C20.6408 27.3457 19.4431 25.9465 18.2155 24.5057L16.157 22.079C16.1191 22.0332 16.0682 22.0003 16.0113 21.9847C15.9543 21.9692 15.894 21.9717 15.8385 21.9919C15.783 22.0122 15.735 22.0492 15.7009 22.098C15.6668 22.1468 15.6484 22.205 15.648 22.2648L15.5806 27.0499C15.5792 27.1212 15.6046 27.1904 15.6517 27.2433L15.7303 27.3419C18.9079 31.0654 21.9994 34.7964 25.1844 38.535C25.6336 39.0507 25.7608 39.0621 26.2736 38.6185C29.8841 35.4941 33.502 32.376 37.1275 29.2643C37.4568 28.9724 37.4756 28.7373 37.1948 28.4074C34.0584 24.6574 28.7475 18.0825 25.5924 14.3439Z" fill="#1B1B1B"/>
<path d="M25.7045 29.8033C25.744 29.8759 25.8008 29.9375 25.8697 29.9824C25.9385 30.0273 26.0173 30.0542 26.099 30.0605C26.1807 30.0669 26.2626 30.0527 26.3375 30.019C26.4123 29.9853 26.4778 29.9334 26.5279 29.8677C27.1379 29.3103 27.7892 28.7681 28.3992 28.1994C28.8371 27.8202 28.8446 27.6723 28.4741 27.2287L19.5402 16.6536C19.1659 16.2062 19.1659 16.0204 19.6188 15.6374L24.7239 11.2049C25.2291 10.7727 25.3601 10.784 25.7831 11.2883L32.0259 18.7429L32.9279 19.8159C32.9394 19.8505 32.9571 19.8827 32.9803 19.9107L35.1174 22.4246C35.1556 22.469 35.2062 22.5006 35.2625 22.5153C35.3188 22.5301 35.3782 22.5272 35.4329 22.5071C35.4875 22.487 35.5349 22.4506 35.5688 22.4027C35.6027 22.3548 35.6214 22.2977 35.6227 22.2388L35.69 17.4537C35.6923 17.3818 35.6683 17.3116 35.6227 17.2565L35.2484 16.8091C32.1607 13.1539 29.2863 9.64274 26.1648 5.98753C25.7569 5.51356 25.7419 5.52873 25.2853 5.91928L14.4314 15.2545C13.9561 15.664 13.9411 15.7739 14.3303 16.2441L20.8352 24.0209L25.7045 29.8033Z" fill="#1B1B1B"/>
<path d="M51.555 16.9238C54.2507 16.9238 55.6903 18.1278 55.8787 20.198H58.927C58.5985 16.8063 55.9463 14.4033 51.5985 14.4033C47.2507 14.4033 44.6903 16.1212 44.6903 19.2094C44.6903 22.0137 46.5309 23.2177 50.6468 23.9909C53.927 24.7251 55.1347 25.1704 55.2507 27.0547C55.2507 28.7285 53.8304 29.5311 51.5309 29.5311C48.555 29.5311 47.2507 28.3272 47.0429 25.6892H43.9946C44.2507 29.908 46.7869 32.0516 51.4584 32.0516C55.3908 32.0516 58.299 30.094 58.299 26.9128C58.183 23.4281 56.3424 22.5325 51.4825 21.5292C48.8545 21.0398 47.7386 20.5161 47.7386 19.1262C47.7386 17.653 49.0188 16.9238 51.555 16.9238Z" fill="#1B1B1B"/>
<path d="M62.0625 31.7185H74.734V29.198H65.0383V24.1326H73.8548V21.6121H65.0383V17.2759H74.734V14.7554H62.0625V31.7185Z" fill="#1B1B1B"/>
<path d="M89.6667 27.5731L82.2706 14.7554H78.686V31.7185H81.5508L81.5942 18.8322L89.0145 31.7185H92.5701V14.7554H89.7102L89.6667 27.5731Z" fill="#1B1B1B"/>
<path d="M103.27 16.9238C105.966 16.9238 107.41 18.1278 107.594 20.198H110.642C110.313 16.8063 107.666 14.4033 103.313 14.4033C98.9607 14.4033 96.4099 16.1212 96.4099 19.2094C96.4099 22.0137 98.2457 23.2177 102.362 23.9909C105.642 24.7251 106.85 25.1704 106.966 27.0547C106.966 28.7285 105.55 29.5311 103.246 29.5311C100.27 29.5311 98.9655 28.3272 98.7578 25.6892H95.7095C95.9655 29.908 98.5017 32.0516 103.178 32.0516C107.106 32.0516 110.014 30.094 110.014 26.9128C109.898 23.4281 108.081 22.5325 103.197 21.5292C100.569 21.0398 99.4534 20.5161 99.4534 19.1262C99.4534 17.653 100.734 16.9238 103.27 16.9238Z" fill="#1B1B1B"/>
<path d="M113.778 31.7185H126.454V29.198H116.754V24.1326H125.57V21.6121H116.754V17.2759H126.454V14.7554H113.778V31.7185Z" fill="#1B1B1B"/>
<path d="M133.382 14.7554H130.406V31.7185H133.382V14.7554Z" fill="#1B1B1B"/>
<path d="M154.87 30.0202L145.962 14.7554H143.846V31.7185H145.285L145.334 16.4292L154.242 31.7185H156.358V14.7554H154.918L154.87 30.0202Z" fill="#1B1B1B"/>
<path d="M167.565 14.4037C162.986 14.3352 159.681 18.1722 159.73 23.2866C159.657 28.3276 162.962 32.0961 167.565 32.0961C172.145 32.1401 175.498 28.4206 175.425 23.2866C175.522 18.2163 172.14 14.3352 167.565 14.4037ZM167.565 30.7551C163.797 30.7551 161.285 27.6473 161.285 23.2866C161.285 18.9259 163.797 15.7251 167.565 15.7251C171.334 15.7251 173.87 18.8329 173.87 23.2866C173.87 27.7403 171.358 30.7551 167.565 30.7551Z" fill="#1B1B1B"/>
<path d="M184.145 14.7554H178.797V31.7185H183.98C188.845 31.7185 191.541 28.4198 191.541 23.2859C191.541 20.6724 190.913 18.5728 189.657 17.0409C188.401 15.5091 186.541 14.7554 184.145 14.7554ZM183.937 30.4166H180.261V16.0768H184.125C188.053 16.0768 190.009 18.6903 190.009 23.2859C189.985 27.7836 187.961 30.402 183.937 30.402V30.4166Z" fill="#1B1B1B"/>
<path d="M194.908 31.7185H206.444V30.3971H196.377V23.4963H205.469V22.1749H196.377V16.0719H206.444V14.7554H194.908V31.7185Z" fill="#1B1B1B"/>
</g>

</svg>