<svg xmlns="http://www.w3.org/2000/svg" width="210" height="48.544" viewBox="0 0 210 48.544">
  <path id="Union_3" data-name="Union 3" d="M37.928,43.151l5.417-5.393,5.418,5.393-5.418,5.393ZM.013,43.141l5.418-5.392,5.418,5.392L5.431,48.534Zm18.961-2.7-5.418-5.393L8.139,29.659,2.722,24.267l5.417-5.393,5.418-5.392,5.418-5.393L24.391,2.7l5.418,5.393,5.417,5.393,5.418,5.392,5.418,5.393-5.418,5.392-5.418,5.393-5.417,5.393-5.418,5.392Zm0-21.572-5.418,5.393,5.418,5.392,5.417,5.393,5.418-5.393,5.417-5.392-5.417-5.393-5.418-5.392Zm171.292,15.2,3.389-3.294a8.934,8.934,0,0,0,6.478,2.2c3.088,0,4.744-1.134,4.744-3.22a2.858,2.858,0,0,0-.828-2.2,4.071,4.071,0,0,0-2.373-.916l-3.239-.438a9.219,9.219,0,0,1-5.2-2.16,6.776,6.776,0,0,1-1.921-5.125c0-4.648,3.54-7.906,9.341-7.906,3.689,0,6.364.879,8.662,3.038l-3.315,3.185a7.6,7.6,0,0,0-5.5-1.8c-2.789,0-4.143,1.5-4.143,3.3a2.486,2.486,0,0,0,.79,1.867,4.678,4.678,0,0,0,2.485,1.024l3.164.441a9,9,0,0,1,5.123,2.012A7.188,7.188,0,0,1,210,29.611c0,5.052-4.33,7.906-9.944,7.906C195.989,37.518,192.9,36.675,190.266,34.076Zm-23.614-5.708V11.236h5.235V28.184c0,3,1.807,4.8,4.632,4.8s4.671-1.794,4.671-4.8V11.236h5.2V28.368c0,5.526-4.368,9.149-9.867,9.149S166.652,33.894,166.652,28.368Zm-47.641,6.294c-2.712-2.635-2.635-5.892-2.635-10.395s-.077-7.76,2.635-10.4a10.634,10.634,0,0,1,14.5,0c2.711,2.635,2.674,5.894,2.674,10.4s.037,7.759-2.674,10.395a10.631,10.631,0,0,1-14.5,0Zm3.88-17.715c-1.018,1.1-1.282,2.3-1.282,7.321s.264,6.222,1.282,7.321a4.493,4.493,0,0,0,3.389,1.391,4.41,4.41,0,0,0,3.352-1.391c1.016-1.1,1.319-2.306,1.319-7.321s-.3-6.223-1.319-7.321a4.414,4.414,0,0,0-3.352-1.391A4.5,4.5,0,0,0,122.891,16.946ZM67.767,34.662a7.473,7.473,0,0,1-2.184-3.915,34.55,34.55,0,0,1-.453-6.479,34.55,34.55,0,0,1,.453-6.479,7.341,7.341,0,0,1,2.184-3.916A9.971,9.971,0,0,1,75,11.017c5.161,0,8.963,2.928,9.868,8.236H79.555a4.386,4.386,0,0,0-4.52-3.7,4.2,4.2,0,0,0-3.352,1.354c-1.091,1.134-1.318,2.306-1.318,7.358s.227,6.222,1.318,7.358a4.2,4.2,0,0,0,3.352,1.354,4.387,4.387,0,0,0,4.52-3.7h5.311c-.9,5.308-4.747,8.236-9.868,8.236A9.972,9.972,0,0,1,67.767,34.662Zm37.282,2.64V26.878h0v-.487h0v.482H99.812V21.662h5.236V11.242h0v-.006h5.234V37.3Zm50.986,0L150.8,26.9h-3.766V37.3H141.8V11.237h10.507c5.46,0,8.7,3.623,8.7,7.98a7.038,7.038,0,0,1-4.9,6.844L162.1,37.3Zm-9-14.642h4.935c2.3,0,3.8-1.427,3.8-3.44s-1.506-3.442-3.8-3.442h-4.935ZM90.737,37.3V11.237h5.235V37.3ZM0,5.4,5.418,0,10.834,5.4,5.418,10.789Zm37.934,0L43.352,0l5.418,5.393-5.418,5.392Z" fill="#084046"/>
</svg>
