<svg xmlns="http://www.w3.org/2000/svg" xmlns:xlink="http://www.w3.org/1999/xlink" width="253.816" height="73.002" viewBox="0 0 253.816 73.002">
  <defs>
    <filter id="Union_5" x="0" y="0" width="253.816" height="73.002" filterUnits="userSpaceOnUse">
      <feOffset input="SourceAlpha"/>
      <feGaussianBlur stdDeviation="6" result="blur"/>
      <feFlood flood-color="#171c47"/>
      <feComposite operator="in" in2="blur"/>
      <feComposite in="SourceGraphic"/>
    </filter>
  </defs>
  <g transform="matrix(1, 0, 0, 1, 0, 0)" filter="url(#Union_5)">
    <path id="Union_5-2" data-name="Union 5" d="M23.66,36a.517.517,0,0,1-.063,0c-.022,0-.042,0-.062-.007l-.033,0-.03-.01c-.019,0-.036-.01-.056-.014s-.037-.011-.055-.019a.219.219,0,0,1-.036-.013c-.012,0-.024-.011-.036-.017l-.026-.01L.526,24.535c-.018-.01-.033-.021-.049-.031S.42,24.47.392,24.45a.733.733,0,0,1-.071-.057c-.021-.02-.045-.042-.065-.064a.581.581,0,0,1-.06-.072.848.848,0,0,1-.052-.073A.717.717,0,0,1,.1,24.1a.673.673,0,0,1-.039-.086c-.01-.029-.019-.058-.027-.086s-.014-.059-.019-.089a.55.55,0,0,1-.011-.1c0-.018-.006-.036-.006-.056s0-.02,0-.028c0-.035.006-.068.011-.1a.723.723,0,0,1,.015-.089c.007-.027.017-.056.025-.083s.023-.066.038-.1l.01-.026L11.472.523A.151.151,0,0,0,11.492.5.861.861,0,0,1,11.608.33c.011-.011.019-.026.03-.036a.972.972,0,0,1,.178-.145.45.45,0,0,1,.049-.027A.868.868,0,0,1,12.031.05c.019-.006.039-.013.059-.019A.908.908,0,0,1,12.312,0h.007a.109.109,0,0,0,.029,0,.919.919,0,0,1,.172.02c.019,0,.037.012.058.019a.935.935,0,0,1,.139.05L12.74.1c.018.009.032.021.049.031a.921.921,0,0,1,.085.054c.026.019.047.038.071.058A.873.873,0,0,1,13.01.3a.644.644,0,0,1,.059.072c.019.024.036.049.053.073s.03.053.042.08A.743.743,0,0,1,13.2.616.545.545,0,0,1,13.23.7c.007.029.014.058.02.088a.566.566,0,0,1,.011.1c0,.019.005.036.005.056V21.4l9.75-9.751a1.1,1.1,0,0,1,.146-.119c.025-.014.048-.025.072-.037a.832.832,0,0,1,.092-.049c.031-.012.061-.019.094-.029s.054-.017.083-.023a1.108,1.108,0,0,1,.186-.018.88.88,0,0,1,.187.018c.027.006.054.016.08.023s.063.017.095.029.061.033.091.049a.777.777,0,0,1,.072.037,1.048,1.048,0,0,1,.146.119l9.75,9.751V.947c0-.019,0-.037.005-.056,0-.034.006-.066.011-.1s.013-.059.021-.088a.808.808,0,0,1,.027-.087A.743.743,0,0,1,34.211.53c.015-.027.027-.054.043-.08s.034-.049.052-.073.039-.049.06-.072a.552.552,0,0,1,.065-.063A.9.9,0,0,1,34.5.184.655.655,0,0,1,34.586.13c.018-.01.031-.022.049-.031L34.659.09A1.06,1.06,0,0,1,34.8.04c.019,0,.036-.013.055-.017A.859.859,0,0,1,35.027,0c.01,0,.019,0,.029,0h.007a.932.932,0,0,1,.222.031l.06.019a1,1,0,0,1,.167.072c.015.008.031.016.048.027a1.01,1.01,0,0,1,.178.145c.011.011.019.024.03.036A.861.861,0,0,1,35.883.5c.006.01.014.016.02.027L47.275,23.262l.009.026a.7.7,0,0,1,.038.1c.01.027.018.057.025.083a.628.628,0,0,1,.015.089.942.942,0,0,1,.011.1.112.112,0,0,1,0,.028.37.37,0,0,1-.006.056.941.941,0,0,1-.01.1c-.005.03-.013.06-.02.089s-.016.057-.027.086a.816.816,0,0,1-.038.086c-.015.027-.027.054-.044.08a.838.838,0,0,1-.051.073c-.02.026-.039.049-.059.072a.912.912,0,0,1-.066.064.848.848,0,0,1-.07.057.812.812,0,0,1-.085.055c-.019.01-.031.021-.049.031L24.111,35.9l-.025.01c-.012.005-.023.012-.036.017a.178.178,0,0,1-.036.013l-.056.019c-.019,0-.036.011-.055.014l-.031.01-.033,0L23.779,36a.507.507,0,0,1-.063,0Zm.974-3.234,9.082-9.082L24.634,14.6ZM13.658,23.685l9.082,9.082V14.6ZM28.485,31.6l13.926-6.962H35.448Zm-9.6,0-6.963-6.962H4.963ZM36,22.738h8.889L36,4.96Zm-33.52,0h8.889V4.96ZM159.7,26.387a.42.42,0,0,1-.4-.256l-4.124-9.156H155.1l-1.35,8.829a.452.452,0,0,1-.42.348h-2.1a.427.427,0,0,1-.443-.536l2.773-15.655a.394.394,0,0,1,.42-.348h.372a.42.42,0,0,1,.395.232l5.126,11h.072l5.126-11a.4.4,0,0,1,.395-.232h.373a.392.392,0,0,1,.418.348l2.751,15.655a.406.406,0,0,1-.42.536h-2.12a.505.505,0,0,1-.442-.348l-1.375-8.829h-.07l-4.079,9.156a.4.4,0,0,1-.395.256Zm14.118-6.407V10.29a.459.459,0,0,1,.443-.444h2.213a.442.442,0,0,1,.443.444v9.528a3.393,3.393,0,1,0,6.781.023V10.29a.442.442,0,0,1,.442-.444h2.214a.459.459,0,0,1,.443.444v9.69a6.49,6.49,0,0,1-12.978,0ZM97.843,26.387,88.105,15.693h-.023V25.71a.442.442,0,0,1-.444.443H85.52a.459.459,0,0,1-.443-.443V10.031h0a.437.437,0,0,1,.443-.418H86.1l9.69,10.3h.023v-9.62a.443.443,0,0,1,.444-.443H98.4a.458.458,0,0,1,.443.443V25.967a.439.439,0,0,1-.443.42Zm-31.837,0a.4.4,0,0,1-.4-.257l-4.17-10.553h-.116L57.2,26.129a.4.4,0,0,1-.4.257h-.371a.449.449,0,0,1-.42-.326L51.607,10.4a.408.408,0,0,1,.42-.561h2.143a.482.482,0,0,1,.42.326l2.422,9.3H57.1l3.7-9.6a.375.375,0,0,1,.4-.254h.42a.374.374,0,0,1,.395.254l3.733,9.6h.093l2.377-9.3a.48.48,0,0,1,.42-.326h2.141a.407.407,0,0,1,.42.561L66.8,26.061a.45.45,0,0,1-.42.326Zm140.885-.231a.442.442,0,0,1-.443-.442V10.29a.442.442,0,0,1,.443-.444h9.482a.443.443,0,0,1,.443.444V12.2a.442.442,0,0,1-.443.443h-6.9v3.821h5.754a.458.458,0,0,1,.442.443v1.934a.443.443,0,0,1-.442.443h-5.754v4.078h6.9a.442.442,0,0,1,.443.443v1.911a.443.443,0,0,1-.443.442Zm-63.366,0a.4.4,0,0,1-.372-.209l-3.1-6.174H137.47v5.941a.458.458,0,0,1-.443.442h-2.143a.441.441,0,0,1-.443-.442V10.29h0a.442.442,0,0,1,.443-.444h6.663a5.045,5.045,0,0,1,5.077,5.01,5.147,5.147,0,0,1-3.446,4.707l3.192,5.917a.44.44,0,0,1-.395.675Zm-6.036-8.877h3.8a2.374,2.374,0,0,0,2.307-2.376,2.318,2.318,0,0,0-2.307-2.26h-3.8Zm-18.425,8.877a.441.441,0,0,1-.443-.442V10.29a.442.442,0,0,1,.443-.444h9.481a.442.442,0,0,1,.443.444V12.2a.442.442,0,0,1-.443.443h-6.9v3.821H127.4a.458.458,0,0,1,.442.443v1.934a.443.443,0,0,1-.442.443H121.65v4.078h6.9a.442.442,0,0,1,.443.443v1.911a.442.442,0,0,1-.443.442Zm-42.807,0a.458.458,0,0,1-.443-.442V10.29a.459.459,0,0,1,.443-.444h2.166a.457.457,0,0,1,.443.444V25.713a.457.457,0,0,1-.443.442Zm119.228,0a.46.46,0,0,1-.443-.444V12.641h-3.565a.441.441,0,0,1-.442-.443V10.29a.442.442,0,0,1,.442-.444h10.182a.442.442,0,0,1,.443.444V12.2a.441.441,0,0,1-.443.443h-3.565V25.711a.459.459,0,0,1-.443.444Zm-87.829,0a.46.46,0,0,1-.443-.444V12.641h-3.564a.441.441,0,0,1-.442-.443V10.29a.442.442,0,0,1,.442-.444H113.83a.442.442,0,0,1,.443.444V12.2a.441.441,0,0,1-.443.443h-3.564V25.711a.459.459,0,0,1-.443.444Z" transform="translate(18.5 18.5)" fill="#fff" stroke="rgba(0,0,0,0)" stroke-miterlimit="10" stroke-width="1"/>
  </g>
</svg>
