<svg xmlns="http://www.w3.org/2000/svg" xmlns:xlink="http://www.w3.org/1999/xlink" width="313.894" height="87.666" viewBox="0 0 313.894 87.666">
  <defs>
    <filter id="Union_6" x="0" y="0" width="313.894" height="87.666" filterUnits="userSpaceOnUse">
      <feOffset input="SourceAlpha"/>
      <feGaussianBlur stdDeviation="6" result="blur"/>
      <feFlood flood-color="#171c47"/>
      <feComposite operator="in" in2="blur"/>
      <feComposite in="SourceGraphic"/>
    </filter>
  </defs>
  <g transform="matrix(1, 0, 0, 1, 0, 0)" filter="url(#Union_6)">
    <path id="Union_6-2" data-name="Union 6" d="M26.862,40.471c-.122.492-2.479,4.375-2.479,4.375l1.487-5.667L22.8,42.761l1.686-4.872-2.677,1.79a43.669,43.669,0,0,0,4.758-6.066,5.365,5.365,0,0,0,.5-4.275c-.2-.8-.992-1.79-.892-.7s-1.19,3.578-1.487,4.076S22.6,35.1,23,34.308a10.859,10.859,0,0,0,.714-2.283,6.5,6.5,0,0,0,.05-3.691c-.225-.735-.482-1.463-.763-2.179a11.785,11.785,0,0,0-1.4,2.681,19.027,19.027,0,0,0-.586,5.268l-.594-1.89a46.012,46.012,0,0,1-.695-7.755s-.594.7-1.487,1.69a12.183,12.183,0,0,0-1.5,2.5c-.3.574-.594,1.153-.882,1.738a12.408,12.408,0,0,1-.865,1.747c0-.124-.023-.247-.023-.372-.005-.449-.007-.9-.023-1.351a18.237,18.237,0,0,1,.343-5.531,13.544,13.544,0,0,1,1.073-2.81l-.3.3a5.043,5.043,0,0,1-1.064.67,16.128,16.128,0,0,1-7.505,2.583c-.321.015-.9.12-1.183-.068a.221.221,0,0,1,.138-.1,23.386,23.386,0,0,0,5.21-3.106,8.268,8.268,0,0,0,1.79-1.907c.1-.14.484-1.013.635-1.053,0,0,1.091-.3-1.884.5a16.447,16.447,0,0,1-5.361.171c-1.514-.111-3.012-.318-4.515-.512,1.837-.073,8.28-2.092,9.083-3.436a8.44,8.44,0,0,1-1.453-.242A22.131,22.131,0,0,1,3.3,14.074a15.247,15.247,0,0,1-3.267-2.2L0,11.836s.794.4,1.787.8a10.907,10.907,0,0,0,2.752.531c1.93.226,3.98.4,5.675-.731a9,9,0,0,1-1.552-.89c-2.005-1.147-3.992-2.385-5-4.574a16.449,16.449,0,0,0,2.38,1.288,34.393,34.393,0,0,0,3.57,1.094A24.225,24.225,0,0,1,7.336,6.269,28.639,28.639,0,0,1,6.049,3.087c.2.4.694.6,1.486,1.391A7.753,7.753,0,0,0,10.509,6.07,23,23,0,0,1,8.727,2.413C8.5,1.653,8.354.677,8.13,0c.1.3.892.994,1.685,2.089A13.629,13.629,0,0,0,12,4.276V2.989A2.045,2.045,0,0,1,12.987,1.4c.892-.4,1.978,1,1.978,1s-1.291.1-1.389.6,1.091,1.59,1.091,1.59l-.4.895s0,5.866,4.462,7.556,4.361,2.485,4.758,3.082c.634.954-.217,2.307.27,3.271a1.035,1.035,0,0,0,.283.367,1.287,1.287,0,0,0,1.746-.469c.013-.04.025-.08.034-.117a1.759,1.759,0,0,0,.066-.41V17.9s-.854.735-.854,1.1a6.849,6.849,0,0,1,0-2.576l.244-1.347s-.611.491-.611.98c0,.027.009.067-.014.05a4.057,4.057,0,0,1,.254-3.092c.228-.4.831-1.246,1.349-1.246-.178,0-.364-.009-.553-.018a2.962,2.962,0,0,0-2.256.509l-.979.858s1.1-2.083,2.693-2.083h2.2a4.854,4.854,0,0,0-1.763-.577,12.936,12.936,0,0,0-1.742.075,2.166,2.166,0,0,1,1.18-.554,4.973,4.973,0,0,1,2.939.442c2.809,1.225,3.669,1.715,3.787,2.083a1.916,1.916,0,0,1,.117,1.715l-.368.858s0-1.219-.733-1.1a13.947,13.947,0,0,0-2.321.858s1.193,2.6,1.828,4.024a2.513,2.513,0,0,0,.519.837,1.142,1.142,0,0,0,1.332.055,1.02,1.02,0,0,0,.282-.366c.486-.965-.363-2.317.271-3.271.4-.6.3-1.391,4.758-3.082S41.91,5.474,41.91,5.474l-.4-.895s1.192-1.094,1.091-1.59-1.389-.6-1.389-.6S42.307,1,43.2,1.4a2.041,2.041,0,0,1,.992,1.591V4.276a13.589,13.589,0,0,0,2.181-2.188C47.165.994,47.957.3,48.057,0c-.224.672-.375,1.648-.6,2.408a23.012,23.012,0,0,1-1.783,3.658,7.752,7.752,0,0,0,2.975-1.591c.793-.795,1.289-.995,1.487-1.391a28.779,28.779,0,0,1-1.287,3.181,24.471,24.471,0,0,1-2.282,3.083,34.457,34.457,0,0,0,3.569-1.094,16.372,16.372,0,0,0,2.381-1.288c-1,2.192-2.989,3.431-4.992,4.577a8.938,8.938,0,0,1-1.548.892c1.695,1.133,3.747.956,5.674.73a10.828,10.828,0,0,0,2.752-.531c.991-.4,1.784-.8,1.784-.8l-.038.033a15.275,15.275,0,0,1-3.268,2.2,22.187,22.187,0,0,1-6.644,1.795,8.444,8.444,0,0,1-1.452.242c.8,1.344,7.246,3.363,9.084,3.436-1.5.194-3,.4-4.515.512a16.452,16.452,0,0,1-5.362-.171c-2.974-.8-1.884-.5-1.884-.5.15.042.537.914.635,1.053a8.226,8.226,0,0,0,1.789,1.907,23.345,23.345,0,0,0,5.21,3.106.219.219,0,0,1,.137.1c-.284.187-.861.084-1.184.07a16.125,16.125,0,0,1-7.507-2.58,5.007,5.007,0,0,1-1.064-.67l-.3-.3a13.615,13.615,0,0,1,1.073,2.81,18.24,18.24,0,0,1,.341,5.531c-.016.449-.023.9-.023,1.351,0,.124-.023.247-.023.371a12.458,12.458,0,0,1-.865-1.747c-.286-.581-.58-1.165-.881-1.739a12.208,12.208,0,0,0-1.5-2.5c-.892-1-1.487-1.69-1.487-1.69a46.1,46.1,0,0,1-.694,7.755l-.595,1.889a19.068,19.068,0,0,0-.585-5.273,11.785,11.785,0,0,0-1.4-2.681c-.281.715-.54,1.442-.763,2.179a6.5,6.5,0,0,0,.045,3.688,10.922,10.922,0,0,0,.715,2.284c.4.8-1.389-1.094-1.686-1.591s-1.587-2.983-1.487-4.076-.694-.1-.892.7a5.356,5.356,0,0,0,.495,4.275,43.808,43.808,0,0,0,4.766,6.066l-2.677-1.79,1.686,4.873-3.073-3.58L31.8,44.846s-2.362-3.883-2.479-4.375c-.086-.343-.984,5.832-1.228,7.528C27.845,46.3,26.948,40.128,26.862,40.471Zm199.072-2.446c-1.382,0-2.419.029-3.226.058v-.432l.173-.029c.806-.144.806-.288.806-2.534V21.724a1.936,1.936,0,0,0-.346-1.238l-.6-1.037v-.144a41.229,41.229,0,0,0,5.126-1.958l.144.058c-.058.547-.115,1.757-.115,2.362.95-.806,2.621-2.333,4.666-2.333,3.082,0,5.184,2.419,5.184,5.99a7.439,7.439,0,0,1-7.373,7.834,6.739,6.739,0,0,1-2.477-.461v4.262c0,2.246.029,2.39.806,2.448l1.238.086v.49C229.016,38.054,227.317,38.025,225.934,38.025Zm1.958-18v6.509c0,2.851.835,3.859,2.246,3.859,1.843,0,3.053-2.016,3.053-5.328,0-3.053-1.555-5.184-3.917-5.184A5.641,5.641,0,0,0,227.893,20.025Zm18.4,8.294c0-3.571,0-6.365.029-7.776l-1.181-1.469v-.115a34.32,34.32,0,0,0,5.357-4.089l.173.086c-.058.49-.173,2.044-.173,2.908l4.378-.144a3.362,3.362,0,0,1-.864,1.786l-3.514-.058v7.69c0,1.181,1.037,1.354,2.218,1.354a4.348,4.348,0,0,0,2.333-.6l.115.144a6.166,6.166,0,0,1-5.069,3.226C247.909,31.257,246.3,30.076,246.3,28.319ZM190.971,21.7c0-6.364,5.328-10.309,11.117-10.309a12.2,12.2,0,0,1,5.76,1.44l.662,4.924-.288.173a11.822,11.822,0,0,0-2.045-3.685,4.97,4.97,0,0,0-3.917-1.786c-3.427,0-6.163,2.909-6.163,7.8,0,5.1,3.053,8.438,6.97,8.438a6.221,6.221,0,0,0,6.019-3.83l.317.144-1.21,3.427a10.161,10.161,0,0,1-7.114,2.822C195.838,31.257,190.971,27.686,190.971,21.7Zm-42.508,2.736a7.179,7.179,0,0,1,7.373-7c3.859,0,7.4,2.765,7.4,6.826a7.186,7.186,0,0,1-7.4,7C152.006,31.257,148.463,28.492,148.463,24.431Zm4.694-.346c0,3.6.922,6.538,2.678,6.538,1.786,0,2.707-2.246,2.707-6.019,0-3.6-.922-6.538-2.707-6.538C154.079,18.067,153.158,20.313,153.158,24.086Zm-16.934.835a7.585,7.585,0,0,1,7.6-7.488c1.757,0,3.946.749,3.946,2.39a1.576,1.576,0,0,1-1.555,1.5c-2.1,0-1.44-2.938-3.024-2.938-1.613,0-2.851,1.958-2.851,4.435,0,3.456,1.814,5.616,4.666,5.616a3.638,3.638,0,0,0,2.909-1.411l.144.086a6.079,6.079,0,0,1-5.587,4.147A6.01,6.01,0,0,1,136.223,24.921Zm-15.955,3.4c0-3.571,0-6.365.029-7.776l-1.181-1.469v-.115a34.32,34.32,0,0,0,5.357-4.089l.173.086c-.058.49-.173,2.044-.173,2.908l4.378-.144a3.362,3.362,0,0,1-.864,1.786l-3.514-.058v7.69c0,1.181,1.037,1.354,2.218,1.354a4.348,4.348,0,0,0,2.333-.6l.115.144a6.166,6.166,0,0,1-5.069,3.226C121.881,31.257,120.268,30.076,120.268,28.319ZM106.444,31.2a15.415,15.415,0,0,0,.173-1.958,8.2,8.2,0,0,1-4.435,2.016c-1.958,0-3.11-1.642-3.11-3.773V20.227a1.05,1.05,0,0,0-.893-1.181l-.288-.086v-.346a26.519,26.519,0,0,0,5.414-1.066l.115.058c-.058.95-.115,2.39-.115,5.443v2.218c0,2.678.432,3.773,2.275,3.773a6.989,6.989,0,0,0,1.037-.058V20.227a1.05,1.05,0,0,0-.893-1.181l-.288-.086v-.346a26.228,26.228,0,0,0,5.386-1.066l.115.058c-.058.95-.115,2.39-.115,5.443v5.328c0,.835.144,1.152.72,1.238l.2.029v.288c-1.5.374-3.888.893-5.184,1.325Zm155.289-2.16c-.662.835-1.67,2.1-3.2,2.1a2.91,2.91,0,0,1-3.053-3.082c0-1.5.922-1.93,2.448-2.592l3.859-1.642V21.494a2.117,2.117,0,0,0-2.39-2.045c-.835,0-1.181.4-1.181,1.21a7.533,7.533,0,0,0,.259,1.872,19.1,19.1,0,0,1-2.563.461c-.115,0-.2-.086-.2-.317,0-1.93,3.168-5.242,6.106-5.242,1.642,0,4.176.72,4.176,2.938,0,2.016-.144,5.242-.144,7,0,.922.346,1.3,1.094,1.3a1.5,1.5,0,0,0,.95-.346l.086.058a3.236,3.236,0,0,1-6.25.662Zm-1.181-3.8a1.975,1.975,0,0,0-.95,1.728c0,1.238.662,1.843,1.613,1.843a1.506,1.506,0,0,0,.518-.086l.029-4.406Zm-44.352,3.8c-.662.835-1.67,2.1-3.2,2.1a2.91,2.91,0,0,1-3.053-3.082c0-1.5.922-1.93,2.448-2.592l3.859-1.642V21.494a2.117,2.117,0,0,0-2.39-2.045c-.835,0-1.181.4-1.181,1.21a7.533,7.533,0,0,0,.259,1.872,19.1,19.1,0,0,1-2.563.461c-.115,0-.2-.086-.2-.317,0-1.93,3.168-5.242,6.106-5.242,1.642,0,4.176.72,4.176,2.938,0,2.016-.144,5.242-.144,7,0,.922.346,1.3,1.094,1.3a1.5,1.5,0,0,0,.95-.346l.086.058a3.236,3.236,0,0,1-6.25.662Zm-1.181-3.8a1.975,1.975,0,0,0-.95,1.728c0,1.238.662,1.843,1.613,1.843a1.506,1.506,0,0,0,.518-.086l.029-4.406ZM83.03,31.027,76.722,14.237l-1.411,12.93a11.246,11.246,0,0,0-.086,1.3c0,1.613.662,1.93,3.254,2.016v.49c-1.5-.029-2.794-.058-4-.058s-2.275.029-3.341.058v-.461c2.074-.058,2.621-.922,2.909-3.053L75.57,15.62c.029-.346.058-.691.058-1.008,0-1.67-.518-2.448-2.736-2.448v-.49c1.123.029,2.65.029,4.118.029s2.88-.029,3.83-.058l4.176,11.721,4.032-11.721c.893.029,2.3.058,4.061.058,1.094,0,2.333,0,3.686-.029v.49c-2.333,0-2.765.778-2.765,2.448,0,.288.029.72.058,1.008l1.3,11.75c.259,2.3.518,3.024,2.765,3.11v.49c-1.267-.029-3.2-.058-5.069-.058s-3.686.029-4.781.058v-.49c1.987-.058,2.362-.49,2.362-1.757a12.618,12.618,0,0,0-.086-1.354L89.164,14.324l-5.933,16.7Zm188.236-.115c-1.21,0-2.448.029-3.082.058v-.432l.173-.029c.806-.144.806-.288.806-2.534V13.661a1.858,1.858,0,0,0-.346-1.238l-.749-1.066v-.144a47.459,47.459,0,0,0,5.3-1.613l.144.058c-.058.6-.144,2.563-.144,4.925V27.974c0,2.246,0,2.39.806,2.534l.173.029v.432C273.713,30.94,272.5,30.911,271.265,30.911Zm-29.635,0c-1.21,0-2.448.029-3.082.058v-.432l.173-.029c.806-.144.806-.288.806-2.534v-6.25a1.936,1.936,0,0,0-.346-1.238l-.6-1.037v-.144a46.333,46.333,0,0,0,5.126-1.958l.144.058c-.058.6-.115,2.016-.115,4.378v6.192c0,2.246,0,2.39.806,2.534l.173.029v.432C244.078,30.94,242.869,30.911,241.63,30.911Zm-59.818,0c-1.21,0-2.448.029-3.082.058v-.432l.173-.029c.806-.144.806-.288.806-2.534V24.115c0-2.563-.634-4.234-2.39-4.234a3.264,3.264,0,0,0-1.181.2v7.891c0,2.246,0,2.39.806,2.534l.173.029v.432c-.634-.029-1.843-.058-3.081-.058-1.21,0-2.448.029-3.082.058v-.432l.173-.029c.806-.144.806-.288.806-2.534v-6.25a1.936,1.936,0,0,0-.346-1.238l-.6-1.037v-.144a46.333,46.333,0,0,0,5.126-1.958l.143.058c-.058.518-.086,1.613-.115,2.3,1.21-.95,3.024-2.275,4.522-2.275,1.843,0,3.254,1.584,3.254,3.773v6.768c0,2.246,0,2.39.806,2.534l.173.029v.432C184.261,30.94,183.051,30.911,181.813,30.911Zm-14.687,0c-1.21,0-2.448.029-3.082.058v-.432l.173-.029c.806-.144.806-.288.806-2.534v-6.25a1.936,1.936,0,0,0-.346-1.238l-.6-1.037v-.144a46.332,46.332,0,0,0,5.126-1.958l.144.058c-.058.6-.115,2.016-.115,4.378v6.192c0,2.246,0,2.39.806,2.534l.173.029v.432C169.574,30.94,168.364,30.911,167.126,30.911Zm-34.618,0c-1.21,0-2.448.029-3.082.058v-.432l.173-.029c.806-.144.806-.288.806-2.534v-6.25a1.936,1.936,0,0,0-.346-1.238l-.6-1.037v-.144a46.333,46.333,0,0,0,5.126-1.958l.144.058c-.058.6-.115,2.016-.115,4.378v6.192c0,2.246,0,2.39.806,2.534l.173.029v.432C134.956,30.94,133.746,30.911,132.508,30.911Zm-16.906,0c-1.21,0-2.448.029-3.082.058v-.432l.173-.029c.806-.144.806-.288.806-2.534V13.661a1.857,1.857,0,0,0-.346-1.238l-.749-1.066v-.144A47.461,47.461,0,0,0,117.7,9.6l.144.058c-.058.6-.144,2.563-.144,4.925V27.974c0,2.246,0,2.39.806,2.534l.173.029v.432C118.05,30.94,116.841,30.911,115.6,30.911ZM239.47,13.2a2.3,2.3,0,1,1,2.3,2.332A2.3,2.3,0,0,1,239.47,13.2Zm-74.5,0a2.3,2.3,0,1,1,2.3,2.332A2.3,2.3,0,0,1,164.965,13.2Zm-34.618,0a2.3,2.3,0,1,1,2.3,2.332A2.3,2.3,0,0,1,130.348,13.2Z" transform="translate(21.05 18.16)" fill="#fff" stroke="rgba(0,0,0,0)" stroke-miterlimit="10" stroke-width="1"/>
  </g>
</svg>
