<svg width="300" height="43" viewBox="0 0 300 43" fill="none" xmlns="http://www.w3.org/2000/svg">
<g clip-path="url(#clip0_1545_172)">
<path d="M25.5924 14.3439C25.555 14.2746 25.5012 14.2159 25.4357 14.173C25.3702 14.1302 25.2953 14.1046 25.2175 14.0986C25.1398 14.0925 25.0619 14.1063 24.9907 14.1385C24.9196 14.1708 24.8575 14.2205 24.8102 14.2833C24.2001 14.8331 23.59 15.3677 22.9388 15.9061C22.4036 16.3725 22.3999 16.4635 22.8527 17.0019L31.854 27.922C32.2507 28.3922 32.2282 28.4832 31.7978 28.8738C30.0662 30.3904 28.3296 31.9071 26.588 33.4238C26.165 33.803 26.0004 33.7727 25.6336 33.329C24.3835 31.8351 23.1409 30.3336 21.8908 28.8396C20.6408 27.3457 19.4431 25.9465 18.2155 24.5057L16.157 22.079C16.1191 22.0332 16.0682 22.0003 16.0113 21.9847C15.9543 21.9692 15.894 21.9717 15.8385 21.9919C15.783 22.0122 15.735 22.0492 15.7009 22.098C15.6668 22.1468 15.6484 22.205 15.648 22.2648L15.5806 27.0499C15.5792 27.1212 15.6046 27.1904 15.6517 27.2433L15.7303 27.3419C18.9079 31.0654 21.9994 34.7964 25.1844 38.535C25.6336 39.0507 25.7608 39.0621 26.2736 38.6185C29.8841 35.4941 33.502 32.376 37.1275 29.2643C37.4568 28.9724 37.4756 28.7373 37.1948 28.4074C34.0584 24.6574 28.7475 18.0825 25.5924 14.3439Z" fill="#1B1B1B"/>
<path d="M25.7045 29.8033C25.744 29.8759 25.8008 29.9375 25.8697 29.9824C25.9385 30.0273 26.0173 30.0542 26.099 30.0605C26.1807 30.0669 26.2626 30.0527 26.3375 30.019C26.4123 29.9853 26.4778 29.9334 26.5279 29.8677C27.1379 29.3103 27.7892 28.7681 28.3992 28.1994C28.8371 27.8202 28.8446 27.6723 28.4741 27.2287L19.5402 16.6536C19.1659 16.2062 19.1659 16.0204 19.6188 15.6374L24.7239 11.2049C25.2291 10.7727 25.3601 10.784 25.7831 11.2883L32.0259 18.7429L32.9279 19.8159C32.9394 19.8505 32.9571 19.8827 32.9803 19.9107L35.1174 22.4246C35.1556 22.469 35.2062 22.5006 35.2625 22.5153C35.3188 22.5301 35.3782 22.5272 35.4329 22.5071C35.4875 22.487 35.5349 22.4506 35.5688 22.4027C35.6027 22.3548 35.6214 22.2977 35.6227 22.2388L35.69 17.4537C35.6923 17.3818 35.6683 17.3116 35.6227 17.2565L35.2484 16.8091C32.1607 13.1539 29.2863 9.64274 26.1648 5.98753C25.7569 5.51356 25.7419 5.52873 25.2853 5.91928L14.4314 15.2545C13.9561 15.664 13.9411 15.7739 14.3303 16.2441L20.8352 24.0209L25.7045 29.8033Z" fill="#1B1B1B"/>
<path d="M51.555 16.9238C54.2507 16.9238 55.6903 18.1278 55.8787 20.198H58.927C58.5985 16.8063 55.9463 14.4033 51.5985 14.4033C47.2507 14.4033 44.6903 16.1212 44.6903 19.2094C44.6903 22.0137 46.5309 23.2177 50.6468 23.9909C53.927 24.7251 55.1347 25.1704 55.2507 27.0547C55.2507 28.7285 53.8304 29.5311 51.5309 29.5311C48.555 29.5311 47.2507 28.3272 47.0429 25.6892H43.9946C44.2507 29.908 46.7869 32.0516 51.4584 32.0516C55.3908 32.0516 58.299 30.094 58.299 26.9128C58.183 23.4281 56.3424 22.5325 51.4825 21.5292C48.8545 21.0398 47.7386 20.5161 47.7386 19.1262C47.7386 17.653 49.0188 16.9238 51.555 16.9238Z" fill="#1B1B1B"/>
<path d="M62.0625 31.7185H74.734V29.198H65.0383V24.1326H73.8548V21.6121H65.0383V17.2759H74.734V14.7554H62.0625V31.7185Z" fill="#1B1B1B"/>
<path d="M89.6667 27.5731L82.2706 14.7554H78.686V31.7185H81.5508L81.5942 18.8322L89.0145 31.7185H92.5701V14.7554H89.7102L89.6667 27.5731Z" fill="#1B1B1B"/>
<path d="M103.27 16.9238C105.966 16.9238 107.41 18.1278 107.594 20.198H110.642C110.313 16.8063 107.666 14.4033 103.313 14.4033C98.9607 14.4033 96.4099 16.1212 96.4099 19.2094C96.4099 22.0137 98.2457 23.2177 102.362 23.9909C105.642 24.7251 106.85 25.1704 106.966 27.0547C106.966 28.7285 105.55 29.5311 103.246 29.5311C100.27 29.5311 98.9655 28.3272 98.7578 25.6892H95.7095C95.9655 29.908 98.5017 32.0516 103.178 32.0516C107.106 32.0516 110.014 30.094 110.014 26.9128C109.898 23.4281 108.081 22.5325 103.197 21.5292C100.569 21.0398 99.4534 20.5161 99.4534 19.1262C99.4534 17.653 100.734 16.9238 103.27 16.9238Z" fill="#1B1B1B"/>
<path d="M113.778 31.7185H126.454V29.198H116.754V24.1326H125.57V21.6121H116.754V17.2759H126.454V14.7554H113.778V31.7185Z" fill="#1B1B1B"/>
<path d="M133.382 14.7554H130.406V31.7185H133.382V14.7554Z" fill="#1B1B1B"/>
<path d="M154.87 30.0202L145.962 14.7554H143.846V31.7185H145.285L145.334 16.4292L154.242 31.7185H156.358V14.7554H154.918L154.87 30.0202Z" fill="#1B1B1B"/>
<path d="M167.565 14.4037C162.986 14.3352 159.681 18.1722 159.73 23.2866C159.657 28.3276 162.962 32.0961 167.565 32.0961C172.145 32.1401 175.498 28.4206 175.425 23.2866C175.522 18.2163 172.14 14.3352 167.565 14.4037ZM167.565 30.7551C163.797 30.7551 161.285 27.6473 161.285 23.2866C161.285 18.9259 163.797 15.7251 167.565 15.7251C171.334 15.7251 173.87 18.8329 173.87 23.2866C173.87 27.7403 171.358 30.7551 167.565 30.7551Z" fill="#1B1B1B"/>
<path d="M184.145 14.7554H178.797V31.7185H183.98C188.845 31.7185 191.541 28.4198 191.541 23.2859C191.541 20.6724 190.913 18.5728 189.657 17.0409C188.401 15.5091 186.541 14.7554 184.145 14.7554ZM183.937 30.4166H180.261V16.0768H184.125C188.053 16.0768 190.009 18.6903 190.009 23.2859C189.985 27.7836 187.961 30.402 183.937 30.402V30.4166Z" fill="#1B1B1B"/>
<path d="M194.908 31.7185H206.444V30.3971H196.377V23.4963H205.469V22.1749H196.377V16.0719H206.444V14.7554H194.908V31.7185Z" fill="#1B1B1B"/>
<path d="M217.222 7.83107C217.222 8.28623 217.222 8.65329 217.261 8.93225L214.135 3.40674H212.092V10.748H213.449V5.78529C213.449 5.37907 213.449 5.0365 213.411 4.75753L216.792 10.748H218.57V3.40674H217.217L217.222 7.83107Z" fill="#1B1B1B"/>
<path d="M223.589 5.79468C223.176 5.568 222.712 5.45336 222.242 5.46188C221.774 5.45317 221.312 5.56966 220.903 5.79958C220.512 6.03093 220.194 6.37045 219.986 6.77841C219.756 7.22339 219.641 7.72012 219.652 8.22219C219.637 8.73189 219.75 9.23711 219.981 9.69043C220.187 10.0906 220.507 10.4194 220.899 10.635C221.314 10.8554 221.775 10.9705 222.244 10.9705C222.713 10.9705 223.174 10.8554 223.589 10.635C223.981 10.4183 224.302 10.0899 224.512 9.69043C224.746 9.23825 224.859 8.73221 224.841 8.22219C224.856 7.71244 224.743 7.20712 224.512 6.75394C224.302 6.35076 223.982 6.01762 223.589 5.79468ZM223.203 9.47509C223.089 9.62308 222.942 9.74154 222.774 9.82067C222.606 9.89981 222.422 9.93736 222.237 9.93024C222.051 9.93857 221.867 9.90154 221.699 9.82232C221.531 9.74309 221.384 9.624 221.271 9.47509C221.039 9.09319 220.916 8.65351 220.916 8.20504C220.916 7.75658 221.039 7.31693 221.271 6.93502C221.384 6.78612 221.531 6.667 221.699 6.58777C221.867 6.50854 222.051 6.47154 222.237 6.47987C222.422 6.47276 222.606 6.51031 222.774 6.58944C222.942 6.66858 223.089 6.78703 223.203 6.93502C223.438 7.31575 223.563 7.75585 223.563 8.20504C223.563 8.65423 223.438 9.09437 223.203 9.47509Z" fill="#1B1B1B"/>
<path d="M229.41 5.85873C229.407 6.02297 229.422 6.18703 229.454 6.34815C229.301 6.06547 229.074 5.83147 228.797 5.67239C228.521 5.51332 228.206 5.43546 227.888 5.44761C227.486 5.44452 227.09 5.55283 226.743 5.76084C226.376 5.98412 226.078 6.30818 225.884 6.69564C225.653 7.15954 225.54 7.67418 225.555 8.19325C225.507 8.92452 225.735 9.64695 226.193 10.2145C226.404 10.4487 226.663 10.6335 226.951 10.756C227.24 10.8786 227.551 10.936 227.864 10.9242C228.185 10.9408 228.504 10.8661 228.784 10.7087C229.065 10.5513 229.297 10.3174 229.454 10.0335C229.421 10.1944 229.406 10.3586 229.41 10.5229V10.7333H230.676V3.39209H229.41V5.85873ZM229.111 9.44615C229 9.59419 228.857 9.71422 228.692 9.79687C228.528 9.87952 228.347 9.92254 228.164 9.92254C227.98 9.92254 227.799 9.87952 227.635 9.79687C227.471 9.71422 227.328 9.59419 227.217 9.44615C226.951 9.08209 226.818 8.63584 226.84 8.18345C226.835 7.87736 226.894 7.57364 227.014 7.29271C227.116 7.04884 227.284 6.83867 227.497 6.68584C227.748 6.50642 228.057 6.43219 228.361 6.47871C228.664 6.52524 228.938 6.68892 229.125 6.93545C229.366 7.3058 229.495 7.73974 229.495 8.18345C229.495 8.62716 229.366 9.0611 229.125 9.43145L229.111 9.44615Z" fill="#1B1B1B"/>
<path d="M234.208 5.46203C233.75 5.45454 233.298 5.57112 232.899 5.79973C232.511 6.03177 232.198 6.37147 231.995 6.77856C231.771 7.2147 231.658 7.70107 231.667 8.19297C231.656 8.70227 231.769 9.20648 231.995 9.66122C232.198 10.0607 232.515 10.3896 232.903 10.6058C233.316 10.8304 233.778 10.9433 234.246 10.9337C234.653 10.9388 235.056 10.8571 235.43 10.6939C235.756 10.5459 236.039 10.3149 236.251 10.0234C236.454 9.74603 236.578 9.4176 236.609 9.07391H235.324C235.308 9.19716 235.269 9.31603 235.207 9.42359C235.146 9.53115 235.064 9.62524 234.966 9.70035C234.758 9.85516 234.505 9.93447 234.246 9.92549C234.073 9.93224 233.9 9.89974 233.74 9.83032C233.581 9.7609 233.438 9.6563 233.324 9.52417C233.086 9.23817 232.957 8.87522 232.961 8.50131H236.638V8.21744C236.679 7.48772 236.45 6.76875 235.995 6.20105C235.77 5.95128 235.493 5.7554 235.184 5.62758C234.875 5.49976 234.541 5.44321 234.208 5.46203ZM232.952 7.5812C232.975 7.26018 233.116 6.95968 233.348 6.7394C233.577 6.52316 233.881 6.4071 234.193 6.41639C234.344 6.41031 234.495 6.43537 234.636 6.49006C234.777 6.54474 234.906 6.62789 235.015 6.7345C235.227 6.96373 235.345 7.26678 235.343 7.5812H232.952Z" fill="#1B1B1B"/>
<path d="M240.169 7.6837L239.56 7.56135C239.329 7.52897 239.105 7.45083 238.903 7.33134C238.845 7.29196 238.797 7.23796 238.765 7.17454C238.733 7.11112 238.717 7.04042 238.72 6.96917C238.719 6.88661 238.74 6.80532 238.781 6.73385C238.822 6.66237 238.881 6.60335 238.952 6.56295C239.134 6.45898 239.342 6.40818 239.551 6.41613C239.797 6.40383 240.04 6.48395 240.232 6.64124C240.318 6.71634 240.388 6.80846 240.438 6.91197C240.488 7.01548 240.516 7.12821 240.522 7.24325H241.787C241.788 6.99277 241.731 6.74553 241.623 6.52065C241.514 6.29578 241.355 6.09927 241.159 5.94628C240.694 5.60241 240.126 5.42977 239.551 5.45687C239.18 5.44938 238.812 5.51934 238.469 5.66241C238.179 5.77657 237.927 5.9697 237.739 6.22035C237.568 6.45009 237.477 6.7304 237.478 7.0181C237.478 7.84521 238.029 8.364 239.135 8.58424L239.744 8.70659C239.964 8.74202 240.177 8.81658 240.372 8.92683C240.437 8.96818 240.49 9.02616 240.525 9.09492C240.561 9.16368 240.578 9.24077 240.575 9.31836C240.579 9.41562 240.557 9.51221 240.512 9.59823C240.467 9.68424 240.401 9.75658 240.319 9.80778C240.118 9.94047 239.882 10.0056 239.643 9.99375C239.358 10.0117 239.079 9.91491 238.865 9.72458C238.674 9.53132 238.566 9.26901 238.565 8.99533H237.28C237.291 9.26963 237.358 9.53863 237.478 9.78483C237.598 10.031 237.768 10.249 237.976 10.4244C238.463 10.7945 239.063 10.9798 239.672 10.9481C240.059 10.9556 240.444 10.8823 240.802 10.7328C241.104 10.6082 241.365 10.3994 241.556 10.1308C241.728 9.87415 241.819 9.57018 241.816 9.25963C241.816 8.42763 241.271 7.90394 240.169 7.6837Z" fill="#1B1B1B"/>
<path d="M247.102 5.46221C246.536 5.43335 245.979 5.60657 245.527 5.95162C245.328 6.11033 245.164 6.31034 245.048 6.53824C244.931 6.76614 244.864 7.01668 244.85 7.27305H246.16C246.166 7.15065 246.197 7.03082 246.25 6.92068C246.303 6.81055 246.378 6.71236 246.469 6.63192C246.669 6.4724 246.92 6.39079 247.174 6.40188C247.392 6.38971 247.607 6.45942 247.778 6.59765C247.851 6.65562 247.909 6.73019 247.947 6.81527C247.986 6.90035 248.004 6.9935 248 7.08707C248.004 7.14518 247.993 7.20325 247.971 7.25674C247.948 7.31023 247.914 7.3577 247.87 7.3954C247.744 7.48675 247.595 7.53942 247.44 7.54712L246.715 7.64501C246.2 7.68618 245.703 7.85418 245.266 8.13442C245.088 8.27331 244.948 8.45472 244.857 8.66231C244.766 8.86991 244.727 9.09719 244.744 9.3237C244.739 9.62409 244.823 9.91908 244.986 10.1704C245.149 10.4097 245.373 10.6005 245.633 10.7234C245.898 10.8534 246.189 10.9204 246.483 10.9192C246.841 10.9315 247.196 10.8488 247.512 10.6794C247.778 10.5259 247.995 10.3005 248.14 10.0285C248.109 10.1897 248.091 10.3535 248.087 10.5179V10.7283H249.261V7.7184C249.304 7.10834 249.119 6.50423 248.744 6.02505C248.525 5.81878 248.266 5.66193 247.983 5.56491C247.7 5.46788 247.399 5.43287 247.102 5.46221ZM248.068 8.76576C248.072 8.92931 248.043 9.09202 247.983 9.24364C247.922 9.39527 247.831 9.5325 247.715 9.6467C247.602 9.75951 247.467 9.84833 247.32 9.90799C247.172 9.96764 247.014 9.99696 246.855 9.9942C246.649 10.0016 246.447 9.93387 246.285 9.80332C246.213 9.74482 246.155 9.67026 246.115 9.5854C246.076 9.50054 246.057 9.40765 246.058 9.3139C246.059 9.21744 246.082 9.12252 246.127 9.03729C246.171 8.95206 246.236 8.87904 246.314 8.82449C246.539 8.68323 246.791 8.59307 247.053 8.56021L247.464 8.47699C247.682 8.46091 247.891 8.3829 248.068 8.25188V8.76576Z" fill="#1B1B1B"/>
<path d="M253.005 7.68352L252.392 7.56117C252.16 7.52879 251.937 7.45065 251.735 7.33116C251.676 7.29178 251.628 7.23778 251.596 7.17436C251.564 7.11094 251.548 7.04024 251.551 6.96899C251.553 6.88656 251.576 6.80609 251.618 6.73507C251.659 6.66405 251.718 6.60479 251.788 6.56277C251.968 6.45823 252.174 6.40735 252.382 6.41595C252.629 6.39978 252.873 6.48035 253.063 6.64106C253.149 6.71616 253.219 6.80828 253.269 6.91179C253.319 7.0153 253.348 7.12803 253.353 7.24306H254.619C254.619 6.99259 254.563 6.74535 254.454 6.52047C254.345 6.2956 254.186 6.09909 253.991 5.9461C253.526 5.6008 252.958 5.428 252.382 5.45669C252.011 5.44975 251.643 5.5197 251.3 5.66223C251.01 5.77639 250.758 5.96952 250.57 6.22017C250.399 6.44991 250.308 6.73022 250.309 7.01792C250.309 7.84503 250.865 8.36382 251.966 8.58406L252.58 8.70641C252.799 8.7417 253.01 8.81629 253.203 8.92665C253.268 8.968 253.321 9.02598 253.357 9.09474C253.392 9.1635 253.409 9.24059 253.406 9.31818C253.41 9.41482 253.388 9.51072 253.344 9.59652C253.3 9.68232 253.235 9.75507 253.155 9.80759C252.953 9.94037 252.714 10.0054 252.474 9.99357C252.19 10.0104 251.91 9.9138 251.696 9.7244C251.505 9.53114 251.397 9.26883 251.396 8.99515H250.116C250.126 9.26908 250.193 9.53785 250.312 9.78403C250.431 10.0302 250.6 10.2483 250.807 10.4243C251.296 10.7951 251.898 10.9804 252.508 10.9479C252.893 10.955 253.276 10.8817 253.633 10.7326C253.936 10.6092 254.198 10.4002 254.387 10.1306C254.559 9.87397 254.65 9.57 254.648 9.25945C254.648 8.42745 254.102 7.90376 253.005 7.68352Z" fill="#1B1B1B"/>
<path d="M259.933 5.4624C259.367 5.43354 258.81 5.60676 258.358 5.95181C258.159 6.11077 257.997 6.31093 257.881 6.53885C257.765 6.76677 257.699 7.01719 257.686 7.27324H258.991C259.006 7.02652 259.117 6.79599 259.3 6.63211C259.5 6.47259 259.751 6.39098 260.005 6.40207C260.224 6.38849 260.439 6.45835 260.609 6.59785C260.682 6.65581 260.74 6.73038 260.778 6.81546C260.817 6.90054 260.835 6.99369 260.831 7.08726C260.835 7.14497 260.826 7.20281 260.804 7.25627C260.782 7.30974 260.749 7.35741 260.706 7.39559C260.579 7.48527 260.43 7.53777 260.276 7.54731L259.546 7.6452C259.031 7.68733 258.534 7.85526 258.097 8.13462C257.92 8.2735 257.779 8.45491 257.688 8.66251C257.597 8.8701 257.558 9.09738 257.575 9.32389C257.57 9.62504 257.656 9.92062 257.822 10.1706C257.983 10.412 258.207 10.6035 258.469 10.7236C258.732 10.8539 259.021 10.9209 259.314 10.9194C259.674 10.9312 260.03 10.8486 260.348 10.6796C260.611 10.5246 260.827 10.2994 260.971 10.0286C260.941 10.19 260.925 10.3538 260.923 10.5181V10.7285H262.092V7.7186C262.135 7.10853 261.95 6.50442 261.575 6.02524C261.357 5.8187 261.097 5.66169 260.814 5.56465C260.531 5.46761 260.23 5.43275 259.933 5.4624ZM260.875 8.76595C260.88 8.92966 260.852 9.09272 260.791 9.24452C260.73 9.39632 260.639 9.53343 260.522 9.64689C260.409 9.7597 260.274 9.84852 260.127 9.90818C259.979 9.96783 259.821 9.99715 259.662 9.99439C259.456 10.0013 259.254 9.93368 259.092 9.80351C259.021 9.74429 258.963 9.6696 258.924 9.58491C258.885 9.50022 258.865 9.40767 258.865 9.31409C258.865 9.21703 258.889 9.12152 258.935 9.03611C258.98 8.9507 259.046 8.87806 259.126 8.82468C259.348 8.68265 259.599 8.5924 259.86 8.5604L260.276 8.47718C260.493 8.46125 260.7 8.38318 260.875 8.25207V8.76595Z" fill="#1B1B1B"/>
<path d="M269.179 6.46996L267.956 6.22525C267.633 6.17274 267.321 6.06517 267.034 5.90712C266.937 5.84408 266.858 5.75606 266.805 5.65202C266.752 5.54798 266.728 5.43168 266.734 5.31495C266.732 5.17489 266.767 5.03684 266.836 4.91539C266.905 4.79393 267.005 4.69356 267.126 4.62486C267.43 4.45015 267.776 4.36537 268.126 4.38015C268.543 4.35108 268.957 4.47629 269.29 4.73254C269.419 4.84303 269.523 4.98004 269.595 5.13447C269.668 5.2889 269.707 5.45722 269.71 5.62818H271.116C271.109 5.29362 271.033 4.96418 270.893 4.66142C270.752 4.35866 270.55 4.08937 270.299 3.87117C269.703 3.40379 268.96 3.17082 268.208 3.21534C267.71 3.20821 267.217 3.30484 266.758 3.49921C266.358 3.66308 266.01 3.93575 265.754 4.28716C265.513 4.61706 265.386 5.01753 265.391 5.42751C265.382 5.68289 265.426 5.93738 265.522 6.17379C265.618 6.41019 265.763 6.623 265.947 6.79786C266.361 7.17245 266.872 7.41877 267.42 7.50752L268.652 7.74733C268.975 7.79292 269.281 7.9172 269.546 8.10949C269.642 8.18797 269.719 8.28815 269.77 8.40202C269.821 8.51589 269.845 8.6403 269.84 8.76532C269.849 8.91565 269.816 9.06543 269.747 9.19834C269.677 9.33124 269.572 9.44217 269.444 9.51901C269.124 9.70377 268.759 9.79208 268.391 9.77351C267.933 9.78719 267.484 9.64408 267.116 9.36729C266.941 9.23455 266.798 9.06348 266.698 8.86685C266.597 8.67023 266.542 8.45313 266.536 8.23184H265.13C265.143 8.60493 265.231 8.9714 265.39 9.30826C265.549 9.64513 265.775 9.94512 266.053 10.1895C266.699 10.7046 267.508 10.9639 268.328 10.9188C268.864 10.9328 269.396 10.8293 269.889 10.6153C270.283 10.4325 270.618 10.1407 270.855 9.77351C271.081 9.4052 271.197 8.97856 271.188 8.54508C271.199 8.28634 271.156 8.02825 271.061 7.7878C270.966 7.54736 270.822 7.33005 270.638 7.15026C270.224 6.7888 269.719 6.55298 269.179 6.46996Z" fill="#1B1B1B"/>
<path d="M274.527 5.46176C274.07 5.45371 273.619 5.57036 273.222 5.79945C272.832 6.02988 272.517 6.36989 272.314 6.77828C272.089 7.21443 271.976 7.7008 271.986 8.1927C271.975 8.70199 272.087 9.2062 272.314 9.66095C272.518 10.0618 272.836 10.3911 273.227 10.6055C273.638 10.8305 274.099 10.9435 274.565 10.9334C274.972 10.9385 275.375 10.8568 275.749 10.6936C276.075 10.5456 276.358 10.3146 276.57 10.0231C276.773 9.74576 276.897 9.41733 276.928 9.07364H275.643C275.628 9.19719 275.589 9.31647 275.528 9.42418C275.466 9.53189 275.384 9.62576 275.285 9.70008C275.077 9.85488 274.823 9.9342 274.565 9.92522C274.392 9.93128 274.219 9.89847 274.06 9.82909C273.9 9.75972 273.758 9.65549 273.643 9.52389C273.405 9.2379 273.276 8.87495 273.28 8.50103H276.971V8.21716C277.01 7.4885 276.783 6.77075 276.333 6.20078C276.105 5.94919 275.825 5.75228 275.512 5.62444C275.2 5.49659 274.863 5.44102 274.527 5.46176ZM273.271 7.58093C273.294 7.25991 273.435 6.95941 273.667 6.73912C273.897 6.52168 274.203 6.40553 274.517 6.41612C274.667 6.41043 274.817 6.43567 274.957 6.49035C275.098 6.54503 275.226 6.62799 275.333 6.73422C275.546 6.96346 275.663 7.26651 275.662 7.58093H273.271Z" fill="#1B1B1B"/>
<path d="M279.193 6.55333C279.223 6.37547 279.237 6.19537 279.236 6.01499V5.62836H277.976V10.7476H279.236V8.20756C279.218 8.00031 279.241 7.79142 279.303 7.5931C279.365 7.39479 279.466 7.21103 279.599 7.05255C279.728 6.93005 279.88 6.8349 280.046 6.77271C280.212 6.71052 280.388 6.68254 280.565 6.69039C280.687 6.68794 280.809 6.70111 280.927 6.72955V5.49131C280.838 5.47111 280.748 5.46125 280.657 5.46195C280.333 5.47317 280.019 5.5834 279.758 5.77817C279.497 5.97293 279.3 6.24313 279.193 6.55333Z" fill="#1B1B1B"/>
<path d="M283.961 9.00536C283.889 9.22208 283.83 9.44268 283.782 9.66609C283.735 9.44212 283.673 9.22142 283.598 9.00536L282.487 5.62842H281.13L283.038 10.7477H284.487L286.342 5.62842H285.038L283.961 9.00536Z" fill="#1B1B1B"/>
<path d="M288.368 3.50879H287.044V4.84979H288.368V3.50879Z" fill="#1B1B1B"/>
<path d="M288.343 5.62842H287.077V10.7477H288.343V5.62842Z" fill="#1B1B1B"/>
<path d="M292.764 9.61204C292.653 9.72111 292.521 9.80572 292.376 9.86048C292.231 9.91524 292.077 9.93897 291.923 9.93017C291.734 9.93676 291.547 9.89542 291.378 9.80994C291.21 9.72445 291.065 9.59754 290.957 9.44076C290.702 9.07756 290.574 8.63811 290.594 8.19275C290.578 7.7486 290.714 7.3124 290.981 6.95942C291.097 6.81403 291.245 6.69744 291.412 6.61856C291.579 6.53967 291.762 6.50059 291.947 6.50427C292.093 6.49625 292.239 6.51957 292.376 6.5727C292.512 6.62584 292.636 6.70759 292.739 6.8126C292.931 7.02455 293.042 7.29858 293.053 7.58589H294.363C294.324 7.00584 294.071 6.462 293.652 6.06378C293.187 5.65809 292.584 5.45107 291.971 5.48628C291.505 5.47902 291.045 5.59184 290.633 5.81418C290.226 6.02811 289.89 6.35823 289.667 6.76364C289.428 7.21444 289.31 7.72056 289.324 8.23189C289.282 8.96835 289.527 9.69207 290.005 10.2483C290.249 10.4989 290.543 10.694 290.867 10.8206C291.191 10.9471 291.538 11.0023 291.884 10.9824C292.512 11.0165 293.129 10.8143 293.619 10.4147C294.059 10.0059 294.335 9.44615 294.392 8.84366H293.107C293.075 9.13003 292.955 9.39899 292.764 9.61204Z" fill="#1B1B1B"/>
<path d="M300.005 8.2221C300.045 7.49175 299.814 6.77271 299.358 6.20572C299.133 5.95506 298.856 5.75826 298.547 5.62958C298.237 5.50091 297.904 5.44359 297.57 5.4618C297.112 5.45548 296.66 5.57199 296.261 5.79949C295.874 6.03153 295.56 6.37124 295.358 6.77832C295.133 7.21447 295.02 7.70084 295.029 8.19274C295.018 8.70203 295.131 9.20624 295.358 9.66099C295.561 10.0619 295.879 10.3911 296.271 10.6056C296.681 10.8306 297.142 10.9436 297.609 10.9335C298.015 10.9385 298.419 10.8568 298.792 10.6936C299.119 10.5456 299.401 10.3147 299.614 10.0231C299.816 9.7458 299.94 9.41737 299.971 9.07368H298.71C298.696 9.19724 298.657 9.31651 298.595 9.42422C298.534 9.53193 298.451 9.6258 298.353 9.70012C298.145 9.85562 297.891 9.93501 297.633 9.92526C297.459 9.93132 297.287 9.89851 297.127 9.82913C296.968 9.75976 296.825 9.65553 296.71 9.52394C296.472 9.23794 296.344 8.87499 296.348 8.50107H300.029L300.005 8.2221ZM296.295 7.58097C296.32 7.26057 296.461 6.96085 296.691 6.73916C296.92 6.52339 297.224 6.4074 297.536 6.41616C297.687 6.4095 297.838 6.4343 297.979 6.48902C298.121 6.54373 298.249 6.62719 298.358 6.73426C298.571 6.96301 298.691 7.26597 298.691 7.58097H296.295Z" fill="#1B1B1B"/>
</g>
<defs>
<clipPath id="clip0_1545_172">
<rect width="300" height="43" fill="white"/>
</clipPath>
</defs>
</svg>
