<svg id="bitcoin_suisse" xmlns="http://www.w3.org/2000/svg" width="210.206" height="82.686" viewBox="0 0 210.206 82.686">
  <path id="Path_52" data-name="Path 52" d="M321.768,16.4a2.479,2.479,0,0,0,2.69-2.246,2.528,2.528,0,0,0-2.69-2.418,2.465,2.465,0,0,0-2.648,2.418A2.389,2.389,0,0,0,321.768,16.4Z" transform="translate(-135.69 -5.029)" fill="#262626" fill-rule="evenodd"/>
  <path id="Path_53" data-name="Path 53" d="M320.16,27.354h4.014V45.446H320.16Z" transform="translate(-136.132 -11.66)" fill="#262626"/>
  <path id="Path_54" data-name="Path 54" d="M308.622,26.528a8.861,8.861,0,0,0-6.747,2.721L298.117,27V45.1h4.014V33.307a6.991,6.991,0,0,1,5.338-3.239c2.946,0,4.1,1.08,4.1,5.311V45.1H315.5V34.559C315.5,29.076,312.935,26.528,308.622,26.528ZM257.974,45.441a15.673,15.673,0,0,0,6.064-1.08V40.778a11.674,11.674,0,0,1-5.594,1.425c-3.117,0-6.748-2.159-6.748-6.131,0-4.231,3.2-6.131,6.748-6.131a10.556,10.556,0,0,1,5.252,1.339v-3.67a11.836,11.836,0,0,0-5-1.08c-6.406,0-11.146,3.886-11.146,9.37,0,6.65,5.552,9.543,10.42,9.543Zm27.8-9.456c0,5.656-4.1,9.456-10.078,9.456-5.851,0-10.036-3.756-10.079-9.456,0-5.656,4.228-9.456,10.079-9.456,5.979,0,10.078,3.8,10.078,9.457Zm-4.015.043c0-3.713-2.391-5.959-6.064-5.959a5.591,5.591,0,0,0-5.979,5.959c0,3.713,2.349,5.958,5.979,5.958A5.658,5.658,0,0,0,281.761,36.028Z" transform="translate(-105.292 -11.309)" fill="#262626" fill-rule="evenodd"/>
  <path id="Path_55" data-name="Path 55" d="M209.173,27.354h4.014V45.446h-4.014Z" transform="translate(-88.989 -11.66)" fill="#262626"/>
  <path id="Path_56" data-name="Path 56" d="M180.733,25.731c1.964-1.252,3.844-3.239,3.844-5.958,0-3.584-2.562-6.218-8.2-6.218h-10.42V38.771h10.676c5.594,0,9.352-2.418,9.352-7.3,0-3.023-1.964-4.923-5.253-5.743ZM169.8,17.182h5.766c2.861,0,4.74,1.252,4.74,3.584,0,2.5-1.964,3.8-4.441,3.8H169.8V17.182Zm0,17.919h6.662c3.758,0,5.253-1.511,5.253-3.8,0-2.5-1.879-3.5-6.149-3.5H169.8Zm40.314.561a12.233,12.233,0,0,1-2.392.259c-1.409,0-2.477-.518-2.477-2.5V23.788h4.741V20.722H205.2V16.1l-4.014.431v4.145h-3.032v3.066h3.032v10.19c0,3.584,2.05,5.4,5.167,5.4a11.923,11.923,0,0,0,3.758-.518ZM192.307,16.4a2.389,2.389,0,0,0,2.648-2.246,2.465,2.465,0,0,0-2.648-2.418,2.553,2.553,0,0,0-2.69,2.418A2.505,2.505,0,0,0,192.307,16.4Zm30.176,49.714c0-1.445,1.883-1.927,3.938-1.927a15.722,15.722,0,0,1,6.89,1.664V62.22a17.617,17.617,0,0,0-6.89-1.358c-4.622,0-8.131,1.358-8.131,5.563,0,2.934,2.225,4.555,7.061,5.475,2.482.438,4.835.832,4.835,2.54,0,1.839-1.8,2.19-3.937,2.19a18.631,18.631,0,0,1-7.4-1.665V78.6a19.439,19.439,0,0,0,7.232,1.358c4.279,0,8.388-1.358,8.388-5.957C234.423,67.651,222.483,69.754,222.483,66.118Zm32.053,4.2c0-5.65,4.536-9.5,9.885-9.5,5.691,0,8.9,3.9,8.944,8.891a17.284,17.284,0,0,1-.086,2.19H258.73c.257,2.978,3.766,4.73,7.06,4.73A13.039,13.039,0,0,0,272.21,75.1v3.548A16.579,16.579,0,0,1,264.978,80C258.815,80,254.536,76.148,254.536,70.323Zm9.885-6.307a5.588,5.588,0,0,0-5.691,4.73h10.7a4.976,4.976,0,0,0-5.007-4.73ZM212.3,52.147a2.533,2.533,0,0,0-2.654,2.453,2.454,2.454,0,0,0,2.654,2.277,2.494,2.494,0,0,0,2.7-2.278A2.545,2.545,0,0,0,212.3,52.147ZM201.257,73.3a7.212,7.212,0,0,1-5.434,3.373c-2.868,0-3.852-1.358-3.852-5.475V61.257h-4.023V72.119c0,4.38,1.241,8.015,6.333,8.015a9.254,9.254,0,0,0,7.061-2.628l.257,2.1h3.637V61.257h-4.023V73.3ZM176.18,65.374c-4.921-1.27-6.761-2.277-6.761-4.642,0-2.015,1.626-3.373,4.536-3.373a16.526,16.526,0,0,1,8.3,2.672V55.563a17.584,17.584,0,0,0-8.3-2.1c-5.264,0-9.115,2.672-9.115,7.752,0,5.037,3.723,6.219,8.73,7.489,5.093,1.27,6.333,2.365,6.333,4.292,0,2.277-1.883,3.373-4.921,3.373a18.35,18.35,0,0,1-9.714-3.2v4.642c2.4,1.533,6.761,2.453,9.628,2.453,5.606,0,9.543-2.1,9.543-7.84.043-4.2-3.167-5.694-8.259-7.051Z" transform="translate(-70.158 -5.029)" fill="#262626" fill-rule="evenodd"/>
  <path id="Path_57" data-name="Path 57" d="M243.994,97.82h4.023v18.351h-4.023Z" transform="translate(-103.779 -41.592)" fill="#262626"/>
  <path id="Path_58" data-name="Path 58" d="M293.419,102.39c0-1.445,1.883-1.927,3.937-1.927a15.718,15.718,0,0,1,6.89,1.664V98.492a17.615,17.615,0,0,0-6.89-1.358c-4.622,0-8.131,1.358-8.131,5.563,0,2.934,2.226,4.555,7.061,5.475,2.482.438,4.836.832,4.836,2.54,0,1.839-1.8,2.19-3.938,2.19a18.636,18.636,0,0,1-7.4-1.665v3.636a19.44,19.44,0,0,0,7.232,1.358c4.279,0,8.388-1.358,8.388-5.957,0-6.351-11.982-4.248-11.982-7.884Z" transform="translate(-122.992 -41.3)" fill="#262626" fill-rule="evenodd"/>
  <path id="Path_59" data-name="Path 59" d="M28.771,15.445H40.177V35.609H57.7a32.348,32.348,0,0,0,8.287-.643l.545-.139.491-.276a12.117,12.117,0,0,0,5.634-5.5q.26-.477.476-.972a14.006,14.006,0,0,0,1.052-3.9,17.168,17.168,0,0,0,.135-2.325v-.326l0-.119q.02-1.075-.068-2.147a17.336,17.336,0,0,0-.614-3.439,12.18,12.18,0,0,0-1.657-3.561A11.841,11.841,0,0,0,66.942,7.95l-.14-.069-.032-.016c-2.056-.98-4.967-1.247-9.121-1.059H48.745V.072H40.177V6.806H28.771V.072H20.2V6.806H.244v28.8H28.771Zm-8.568,0V26.969H8.812V15.445H20.2Zm28.541,0V26.969h9.047l.179,0A29.608,29.608,0,0,0,63.4,26.7a3.213,3.213,0,0,0,1.559-1.455l.082-.146.114-.208q.078-.142.145-.3a6.743,6.743,0,0,0,.457-2.87v-.13l0-.429a10.068,10.068,0,0,0-.338-2.906,3.663,3.663,0,0,0-.457-1.042,3.255,3.255,0,0,0-1.509-1.36l-.177-.091L63.1,15.67a16.246,16.246,0,0,0-4.66-.25l-.293.012-.3.013Zm-8.557,51.94V47.222H57.716A32.318,32.318,0,0,1,66,47.865l.545.139.491.276.2.113.2.112a11.82,11.82,0,0,1,5.239,5.275q.261.475.476.972a14.026,14.026,0,0,1,1.052,3.9,17.25,17.25,0,0,1,.135,2.325V61.3l0,.119a21.4,21.4,0,0,1-.067,2.147,17.331,17.331,0,0,1-.615,3.439A12.15,12.15,0,0,1,72,70.568a11.767,11.767,0,0,1-4.938,4.259l-.247.124-.031.015c-2.057.98-4.967,1.247-9.121,1.06H48.756v6.733H40.187V76.025h-11.4v6.733H20.214V76.025H.256v-28.8H28.783V67.385ZM20.215,55.862H8.823V67.385H20.215ZM48.756,67.385V55.862H57.8l.312-.006a31.311,31.311,0,0,1,5.019.232l.142.023.134.024a3.2,3.2,0,0,1,1.534,1.41l.081.142.141.256q.078.142.145.3a6.754,6.754,0,0,1,.458,2.871v.13l0,.429a10.073,10.073,0,0,1-.338,2.906,3.646,3.646,0,0,1-.457,1.042,3.255,3.255,0,0,1-1.512,1.362l-.116.06-.242.121a16.3,16.3,0,0,1-4.661.25l-.293-.012-.3-.014h-9.1Z" transform="translate(-0.244 -0.072)" fill="#cf0a2c" fill-rule="evenodd"/>
  <path id="Path_60" data-name="Path 60" d="M26.779,116.984v8.7H15.714v-8.7Z" transform="translate(-6.815 -49.732)" fill="#fff" fill-rule="evenodd" opacity="0.47"/>
  <path id="Path_61" data-name="Path 61" d="M64.381,116.984v8.7H57.26v-8.7Z" transform="translate(-24.462 -49.732)" fill="#fff" fill-rule="evenodd" opacity="0.47"/>
  <path id="Path_62" data-name="Path 62" d="M49.865,125.68v-8.7h7.122v8.7H49.866Z" transform="translate(-21.321 -49.732)" fill="#fff" fill-rule="evenodd" opacity="0.47"/>
  <path id="Path_63" data-name="Path 63" d="M84.66,125.68v-8.7H95.725v8.7Z" transform="translate(-36.101 -49.732)" fill="#fff" fill-rule="evenodd" opacity="0.47"/>
  <path id="Path_64" data-name="Path 64" d="M34.872,26.843H43.5V38.014h-8.63Z" transform="translate(-14.953 -11.443)" fill="#fff" fill-rule="evenodd" opacity="0.47"/>
  <path id="Path_65" data-name="Path 65" d="M69.657,26.766h8.581v11.17h-8.58V26.766Z" transform="translate(-29.728 -11.411)" fill="#fff" fill-rule="evenodd" opacity="0.47"/>
  <path id="Path_66" data-name="Path 66" d="M69.572.086h8.679v6.7H69.572Z" transform="translate(-29.692 -0.078)" fill="#fff" opacity="0.47"/>
  <path id="Path_67" data-name="Path 67" d="M34.872.518H43.5V6.974h-8.63Z" transform="translate(-14.953 -0.261)" fill="#fff" opacity="0.47"/>
</svg>
