<svg xmlns="http://www.w3.org/2000/svg" width="210" height="42.231" viewBox="0 0 210 42.231">
  <path id="binance" d="M9.527,21.115l-4.74,4.742L0,21.115l4.784-4.784ZM21.115,9.527l8.165,8.165,4.786-4.783L21.115,0,8.165,12.951l4.786,4.783Zm16.331,6.8L32.7,21.115,37.489,25.9l4.783-4.784ZM21.115,32.7,12.951,24.5,8.165,29.282,21.115,42.231,34.066,29.28,29.28,24.5Zm0-6.845L25.9,21.073l-4.784-4.74-4.784,4.783,4.784,4.742Zm50.315.493v-.081c0-3.093-1.651-4.661-4.33-5.692a5.388,5.388,0,0,0,3.051-4.99v-.081c0-3.63-2.928-5.981-7.63-5.981H51.757V32.664H62.769c5.237.04,8.661-2.1,8.661-6.31Zm-6.352-9.9c0,1.731-1.4,2.432-3.671,2.432h-4.7V13.98h5.031c2.145,0,3.34.866,3.34,2.393Zm1.279,9.238c0,1.731-1.36,2.516-3.59,2.516h-6.06V23.135h5.9c2.6,0,3.753.95,3.753,2.516v.042ZM82.111,32.7V9.527H77V32.664h5.113v.04Zm27.385,0V9.527h-5.033V23.8L93.617,9.527h-4.7V32.664h5.033V17.982L105.165,32.7h4.329Zm28.207,0L127.766,9.4h-4.7l-9.94,23.3h5.238l2.1-5.2h9.775l2.1,5.2h5.362Zm-9.278-9.692h-6.145l3.093-7.5ZM162,32.7V9.527h-5.033V23.8L146.117,9.527h-4.7V32.664h5.033V17.982L157.665,32.7h4.329Zm26.269-3.753-3.257-3.257c-1.816,1.649-3.424,2.72-6.1,2.72-3.959,0-6.722-3.3-6.722-7.258v-.123c0-3.959,2.8-7.216,6.722-7.216a8.687,8.687,0,0,1,5.939,2.6L188.1,12.66a11.947,11.947,0,0,0-9.113-3.588A11.791,11.791,0,0,0,166.9,21.033v.083a12.237,12.237,0,0,0,21.362,7.836ZM210,32.7V28.168H197.42V23.3h10.929V18.765H197.42v-4.7h12.414V9.527H192.39V32.664H210v.04Z" fill="#f0b90b"/>
</svg>
