<svg xmlns="http://www.w3.org/2000/svg" width="131.219" height="131.073" viewBox="0 0 131.219 131.073">
  <path id="near-protocol-near-logo" d="M105.15,6.7,77.77,47.332a2.913,2.913,0,0,0,4.369,3.787l26.943-23.448a1.053,1.053,0,0,1,1.748.874V101.8a1.09,1.09,0,0,1-1.893.728L27.38,4.952A13.475,13.475,0,0,0,16.748,0H13.836A13.955,13.955,0,0,0,0,13.981V117.092a13.986,13.986,0,0,0,25.923,7.282L53.3,83.741a2.913,2.913,0,0,0-4.369-3.787l-26.943,23.3a1.053,1.053,0,0,1-1.748-.874V29.273a1.09,1.09,0,0,1,1.893-.728l81.557,97.577a13.688,13.688,0,0,0,10.632,4.952h2.913a13.985,13.985,0,0,0,13.981-13.981V13.981A14.079,14.079,0,0,0,105.15,6.7Z" fill="#fff"/>
</svg>
