<svg fill="#fff" xmlns="http://www.w3.org/2000/svg">
<path fill-rule="evenodd" clip-rule="evenodd" d="M0 4.36103L4.38085 8.72205L8.7617 4.36103L4.38085 0L0 4.36103Z" transform="translate(0.0107422 30.5269)" />
<path fill-rule="evenodd" clip-rule="evenodd" d="M8.7617 4.36103L4.38085 0L0 4.36103L4.38085 8.72205L8.7617 4.36103Z" transform="translate(30.6763)" />
<path fill-rule="evenodd" clip-rule="evenodd" d="M21.9043 21.8052L17.5234 26.1663L13.1426 21.8052L8.76172 17.4442L13.1426 13.0832L17.5234 8.72217L21.9043 13.0832L26.2851 17.4442L21.9043 21.8052ZM35.0468 17.4441L30.6659 13.0831L26.2851 8.72205L21.9042 4.36103L17.5234 0L13.1425 4.36103L8.7617 8.72205L4.38085 13.0831L0 17.4441L4.38085 21.8051L8.7617 26.1662L13.1425 30.5272L17.5234 34.8882L21.9042 30.5272L26.2851 26.1662L30.6659 21.8051L35.0468 17.4441Z" transform="translate(2.20068 2.18018)" />
<path fill-rule="evenodd" clip-rule="evenodd" d="M0 4.36103L4.38085 8.72205L8.7617 4.36103L4.38085 0L0 4.36103Z" transform="translate(30.6714 30.5347)" />
<path fill-rule="evenodd" clip-rule="evenodd" d="M8.7617 4.36103L4.38085 0L0 4.36103L4.38085 8.72205L8.7617 4.36103Z" transform="translate(-0.000488281 0.00292969)" />
</svg>
