<svg xmlns="http://www.w3.org/2000/svg" width="15.743" height="12" viewBox="0 0 15.743 12">
  <g id="Group_16" data-name="Group 16" transform="translate(127.196 94.028)">
    <path id="Path_39" data-name="Path 39" d="M-113.869-93.033a12.987,12.987,0,0,0-3.2-.994.048.048,0,0,0-.051.024,8.984,8.984,0,0,0-.4.82,11.986,11.986,0,0,0-3.6,0,8.29,8.29,0,0,0-.405-.82.051.051,0,0,0-.051-.024,12.945,12.945,0,0,0-3.2.994.045.045,0,0,0-.021.018,13.287,13.287,0,0,0-2.326,8.961.053.053,0,0,0,.02.037,13.055,13.055,0,0,0,3.931,1.987.051.051,0,0,0,.055-.018,9.328,9.328,0,0,0,.8-1.308.05.05,0,0,0-.027-.069,8.6,8.6,0,0,1-1.228-.585.05.05,0,0,1,0-.084c.082-.062.165-.126.244-.191a.048.048,0,0,1,.051-.007,9.311,9.311,0,0,0,7.912,0,.048.048,0,0,1,.051.006c.079.065.161.13.245.192a.05.05,0,0,1,0,.084,8.054,8.054,0,0,1-1.229.585.05.05,0,0,0-.027.07,10.484,10.484,0,0,0,.8,1.307.05.05,0,0,0,.055.019,13.012,13.012,0,0,0,3.937-1.987.05.05,0,0,0,.02-.036,13.2,13.2,0,0,0-2.328-8.961A.04.04,0,0,0-113.869-93.033Zm-8.067,7.191a1.513,1.513,0,0,1-1.415-1.587,1.5,1.5,0,0,1,1.415-1.587,1.5,1.5,0,0,1,1.415,1.587A1.505,1.505,0,0,1-121.936-85.842Zm5.231,0a1.513,1.513,0,0,1-1.415-1.587,1.5,1.5,0,0,1,1.415-1.587,1.5,1.5,0,0,1,1.415,1.587A1.5,1.5,0,0,1-116.7-85.842Z" fill="#fff"/>
  </g>
</svg>
