<svg xmlns="http://www.w3.org/2000/svg" width="14.48" height="12" viewBox="0 0 14.48 12">
  <path id="Path-3" d="M190,306.166q5.83-2.54,7.776-3.349c3.7-1.54,4.472-1.808,4.974-1.816a.876.876,0,0,1,.517.155.562.562,0,0,1,.19.361,2.352,2.352,0,0,1,.022.525c-.2,2.108-1.069,7.225-1.511,9.586-.187,1-.555,1.334-.911,1.367-.774.071-1.362-.512-2.112-1-1.173-.769-1.836-1.248-2.976-2-1.316-.868-.463-1.344.287-2.124.2-.2,3.608-3.307,3.674-3.589a.272.272,0,0,0-.062-.236.307.307,0,0,0-.276-.027q-.177.04-5.624,3.717a2.531,2.531,0,0,1-1.446.534,9.516,9.516,0,0,1-2.073-.49c-.835-.271-1.5-.415-1.441-.876Q189.049,306.543,190,306.166Z" transform="translate(-189 -301)" fill="#fff" fill-rule="evenodd"/>
</svg>
