<svg xmlns="http://www.w3.org/2000/svg" width="18.607" height="11" viewBox="0 0 18.607 11">
  <path id="Union_1" data-name="Union 1" d="M0,5a4.966,4.966,0,1,1,4.966,5A4.983,4.983,0,0,1,0,5ZM10.413,5c0-2.6,1.112-4.707,2.483-4.707S15.379,2.4,15.379,5,14.268,9.706,12.9,9.706,10.413,7.6,10.413,5Zm5.447,0c0-2.329.391-4.217.873-4.217s.873,1.888.873,4.217-.391,4.217-.873,4.217S15.861,7.329,15.861,5Z" transform="translate(0.5 0.5)" fill="#fff" stroke="rgba(0,0,0,0)" stroke-miterlimit="10" stroke-width="1"/>
</svg>
