<svg id="Logo_FIXED" data-name="Logo — FIXED" xmlns="http://www.w3.org/2000/svg" width="29.531" height="24" viewBox="0 0 29.531 24">
  <path id="Path_35" data-name="Path 35" d="M98.787,138.507c11.144,0,17.238-9.233,17.238-17.238,0-.262-.005-.523-.017-.783a12.327,12.327,0,0,0,3.022-3.137,12.1,12.1,0,0,1-3.479.954,6.081,6.081,0,0,0,2.664-3.351,12.142,12.142,0,0,1-3.847,1.471,6.064,6.064,0,0,0-10.325,5.526,17.2,17.2,0,0,1-12.488-6.33,6.064,6.064,0,0,0,1.876,8.088,6.015,6.015,0,0,1-2.744-.758c0,.025,0,.051,0,.077a6.061,6.061,0,0,0,4.861,5.94,6.048,6.048,0,0,1-2.736.1,6.065,6.065,0,0,0,5.66,4.208,12.157,12.157,0,0,1-7.525,2.594,12.34,12.34,0,0,1-1.445-.084,17.153,17.153,0,0,0,9.287,2.721" transform="translate(-89.5 -114.507)" fill="#ffffff"/>
</svg>
